<?xml version="1.0" encoding="UTF-8"?>
<!DOCTYPE svg PUBLIC "-//W3C//DTD SVG 1.1//EN" "http://www.w3.org/Graphics/SVG/1.1/DTD/svg11.dtd">
<svg xmlns="http://www.w3.org/2000/svg" version="1.1" width="1920px" height="1080px" style="shape-rendering:geometricPrecision; text-rendering:geometricPrecision; image-rendering:optimizeQuality; fill-rule:evenodd; clip-rule:evenodd" xmlns:xlink="http://www.w3.org/1999/xlink">
<g><path style="opacity:1" fill="#fefefe" d="M -0.5,-0.5 C 639.5,-0.5 1279.5,-0.5 1919.5,-0.5C 1919.5,359.5 1919.5,719.5 1919.5,1079.5C 1279.5,1079.5 639.5,1079.5 -0.5,1079.5C -0.5,719.5 -0.5,359.5 -0.5,-0.5 Z"/></g>
<g><path style="opacity:1" fill="#000000" d="M 1593.5,119.5 C 1593.5,120.167 1593.5,120.833 1593.5,121.5C 1593.5,124.167 1593.5,126.833 1593.5,129.5C 1593.88,147.534 1593.38,165.534 1592,183.5C 1591.67,351.5 1591.33,519.5 1591,687.5C 1585.85,735.976 1561.69,771.476 1518.5,794C 1491.03,805.496 1462.7,808.496 1433.5,803C 1428.06,801.473 1422.72,799.639 1417.5,797.5C 1411.06,794.781 1404.73,791.781 1398.5,788.5C 1393.05,785.269 1387.72,781.769 1382.5,778C 1377.63,772.963 1372.63,768.13 1367.5,763.5C 1361.43,755.435 1355.77,747.102 1350.5,738.5C 1346.22,729.632 1342.55,720.632 1339.5,711.5C 1339.37,709.784 1339.04,708.117 1338.5,706.5C 1338.64,701.586 1337.97,696.919 1336.5,692.5C 1335.96,676.32 1337.29,660.32 1340.5,644.5C 1340.95,639.56 1342.29,634.893 1344.5,630.5C 1346.25,628.967 1347.25,626.967 1347.5,624.5C 1363.71,589.28 1390.38,566.28 1427.5,555.5C 1431.21,555.41 1434.55,554.41 1437.5,552.5C 1438.83,552.5 1440.17,552.5 1441.5,552.5C 1453.09,550.77 1464.75,550.103 1476.5,550.5C 1480.57,552.054 1484.9,552.72 1489.5,552.5C 1496.07,554.62 1502.74,556.62 1509.5,558.5C 1512.93,560.565 1516.59,562.231 1520.5,563.5C 1522.03,565.245 1524.03,566.245 1526.5,566.5C 1534.09,571.415 1541.42,576.748 1548.5,582.5C 1548.81,583.478 1549.48,584.145 1550.5,584.5C 1551.5,486.502 1551.83,388.502 1551.5,290.5C 1551.5,287.833 1551.5,285.167 1551.5,282.5C 1551.5,277.167 1551.5,271.833 1551.5,266.5C 1435.75,286.622 1320.41,307.622 1205.5,329.5C 1201.9,329.794 1198.4,330.46 1195,331.5C 1194.5,477.5 1194.33,623.5 1194.5,769.5C 1191.35,809.851 1173.35,842.018 1140.5,866C 1106.23,888.428 1069.23,894.595 1029.5,884.5C 1021.87,881.681 1014.53,878.348 1007.5,874.5C 1006.45,874.649 1005.45,874.483 1004.5,874C 998.771,870.145 993.104,866.311 987.5,862.5C 982.167,857.833 977.167,852.833 972.5,847.5C 968.49,842.793 964.49,838.126 960.5,833.5C 960.509,831.692 960.009,830.025 959,828.5C 956.554,825.577 954.387,822.577 952.5,819.5C 952.5,819.167 952.5,818.833 952.5,818.5C 952.104,815.279 950.771,812.612 948.5,810.5C 948.386,808.282 947.72,806.282 946.5,804.5C 946.204,802.597 945.537,800.93 944.5,799.5C 944.5,798.833 944.5,798.167 944.5,797.5C 942.83,790.146 941.163,782.813 939.5,775.5C 974.333,736.862 999.667,692.529 1015.5,642.5C 1021.76,640.352 1028.09,638.686 1034.5,637.5C 1035.17,637.5 1035.5,637.167 1035.5,636.5C 1039.04,636.247 1042.37,635.581 1045.5,634.5C 1046.83,634.5 1048.17,634.5 1049.5,634.5C 1063.85,634.32 1078.18,634.653 1092.5,635.5C 1094.1,637.074 1096.1,637.741 1098.5,637.5C 1103.71,638.1 1108.71,639.433 1113.5,641.5C 1115.03,643.245 1117.03,644.245 1119.5,644.5C 1124.69,647.501 1130.02,650.335 1135.5,653C 1140.4,656.745 1145.4,660.245 1150.5,663.5C 1151.17,664.5 1151.83,665.5 1152.5,666.5C 1153.21,667.404 1154.21,667.737 1155.5,667.5C 1155.5,507.5 1155.5,347.5 1155.5,187.5C 1157.79,187.405 1159.79,186.738 1161.5,185.5C 1165.16,185.841 1168.49,185.175 1171.5,183.5C 1172.17,183.5 1172.83,183.5 1173.5,183.5C 1177.68,183.149 1181.68,182.482 1185.5,181.5C 1186.57,180.566 1187.9,180.232 1189.5,180.5C 1201.18,179.504 1212.51,177.504 1223.5,174.5C 1227.84,174.342 1231.84,173.342 1235.5,171.5C 1236.17,171.5 1236.83,171.5 1237.5,171.5C 1241.73,171.461 1245.73,170.795 1249.5,169.5C 1260.61,168.79 1271.28,166.79 1281.5,163.5C 1284.13,162.908 1286.79,162.575 1289.5,162.5C 1296.81,161.646 1303.81,159.98 1310.5,157.5C 1311.5,157.5 1312.5,157.5 1313.5,157.5C 1320.43,156.803 1327.09,155.47 1333.5,153.5C 1335.5,153.5 1337.5,153.5 1339.5,153.5C 1345.09,152.739 1350.42,151.405 1355.5,149.5C 1356.83,149.5 1358.17,149.5 1359.5,149.5C 1364.61,149.956 1369.27,148.956 1373.5,146.5C 1378.91,146.875 1383.91,145.875 1388.5,143.5C 1393.65,142.788 1398.82,142.121 1404,141.5C 1405.99,141.431 1407.49,140.765 1408.5,139.5C 1409.17,139.5 1409.83,139.5 1410.5,139.5C 1417.85,138.865 1425.18,138.032 1432.5,137C 1433.06,136.617 1433.39,136.117 1433.5,135.5C 1437.16,135.841 1440.49,135.175 1443.5,133.5C 1444.17,133.5 1444.83,133.5 1445.5,133.5C 1458.18,131.354 1470.85,129.021 1483.5,126.5C 1488.48,126.419 1493.14,125.419 1497.5,123.5C 1503.18,123.622 1508.51,122.622 1513.5,120.5C 1517.32,119.518 1521.32,118.851 1525.5,118.5C 1531.06,118.102 1536.4,117.102 1541.5,115.5C 1542.57,114.566 1543.9,114.232 1545.5,114.5C 1550.42,114.13 1555.09,113.13 1559.5,111.5C 1560.17,111.5 1560.83,111.5 1561.5,111.5C 1568.16,110.668 1574.82,109.835 1581.5,109C 1582.42,108.722 1583.08,108.222 1583.5,107.5C 1583.83,107.5 1584.17,107.5 1584.5,107.5C 1587.21,107.425 1589.87,107.092 1592.5,106.5C 1592.18,111.032 1592.52,115.366 1593.5,119.5 Z"/></g>
<g><path style="opacity:1" fill="#6c6c6c" d="M 1583.5,107.5 C 1583.08,108.222 1582.42,108.722 1581.5,109C 1574.82,109.835 1568.16,110.668 1561.5,111.5C 1568.58,109.524 1575.91,108.191 1583.5,107.5 Z"/></g>
<g><path style="opacity:1" fill="#595959" d="M 1593.5,105.5 C 1593.5,110.167 1593.5,114.833 1593.5,119.5C 1592.52,115.366 1592.18,111.032 1592.5,106.5C 1589.87,107.092 1587.21,107.425 1584.5,107.5C 1587.12,105.735 1590.12,105.068 1593.5,105.5 Z"/></g>
<g><path style="opacity:1" fill="#aaaaaa" d="M 1559.5,111.5 C 1555.09,113.13 1550.42,114.13 1545.5,114.5C 1545.92,113.778 1546.58,113.278 1547.5,113C 1551.49,112.358 1555.49,111.858 1559.5,111.5 Z"/></g>
<g><path style="opacity:1" fill="#f5f5f5" d="M 1594.5,105.5 C 1595.48,108.287 1595.81,111.287 1595.5,114.5C 1608.72,112.668 1615.22,118.335 1615,131.5C 1615.67,152.167 1615.67,172.833 1615,193.5C 1614.1,199.16 1613.27,204.826 1612.5,210.5C 1613.66,374.825 1613.83,539.158 1613,703.5C 1610.34,736.049 1598.67,764.049 1578,787.5C 1577.18,788.823 1576.02,789.489 1574.5,789.5C 1577.29,784.59 1580.13,779.59 1583,774.5C 1584.83,772.919 1586.83,771.585 1589,770.5C 1603.3,748.414 1611.14,724.081 1612.5,697.5C 1611.82,537.184 1611.15,376.851 1610.5,216.5C 1612.63,186.7 1612.96,157.033 1611.5,127.5C 1609.8,123.953 1607.46,120.787 1604.5,118C 1601.18,117.502 1597.85,117.335 1594.5,117.5C 1594.5,113.5 1594.5,109.5 1594.5,105.5 Z"/></g>
<g><path style="opacity:1" fill="#575757" d="M 1541.5,115.5 C 1536.4,117.102 1531.06,118.102 1525.5,118.5C 1530.44,116.053 1535.77,115.053 1541.5,115.5 Z"/></g>
<g><path style="opacity:1" fill="#595959" d="M 1513.5,120.5 C 1508.51,122.622 1503.18,123.622 1497.5,123.5C 1502.49,121.378 1507.82,120.378 1513.5,120.5 Z"/></g>
<g><path style="opacity:1" fill="#464646" d="M 1497.5,123.5 C 1493.14,125.419 1488.48,126.419 1483.5,126.5C 1483.5,126.167 1483.5,125.833 1483.5,125.5C 1488.01,124.018 1492.68,123.352 1497.5,123.5 Z"/></g>
<g><path style="opacity:1" fill="#7e7e7e" d="M 1483.5,125.5 C 1483.5,125.833 1483.5,126.167 1483.5,126.5C 1470.85,129.021 1458.18,131.354 1445.5,133.5C 1448.99,132.125 1452.66,130.959 1456.5,130C 1465.59,128.929 1474.59,127.429 1483.5,125.5 Z"/></g>
<g><path style="opacity:1" fill="#5e5e5e" d="M 1443.5,133.5 C 1440.49,135.175 1437.16,135.841 1433.5,135.5C 1436.63,134.419 1439.96,133.753 1443.5,133.5 Z"/></g>
<g><path style="opacity:1" fill="#5c5c5c" d="M 1595.5,134.5 C 1596.29,135.609 1596.79,136.942 1597,138.5C 1597.67,156.167 1597.67,173.833 1597,191.5C 1596.27,196.187 1595.44,200.854 1594.5,205.5C 1595.2,209.471 1595.7,213.471 1596,217.5C 1596.67,378.5 1596.67,539.5 1596,700.5C 1594.37,718.353 1590.54,735.686 1584.5,752.5C 1583.66,752.842 1583.33,753.508 1583.5,754.5C 1581.9,755.252 1580.4,756.252 1579,757.5C 1570.96,770.874 1560.79,782.374 1548.5,792C 1547.21,792.49 1545.87,792.657 1544.5,792.5C 1552.12,785.383 1559.62,778.05 1567,770.5C 1584.01,748.373 1593.17,723.206 1594.5,695C 1594.79,529.466 1594.46,363.966 1593.5,198.5C 1593.81,197.692 1594.31,197.025 1595,196.5C 1595.53,190.336 1596.03,184.169 1596.5,178C 1595.62,163.514 1595.28,149.014 1595.5,134.5 Z"/></g>
<g><path style="opacity:1" fill="#4b4b4b" d="M 1433.5,135.5 C 1433.39,136.117 1433.06,136.617 1432.5,137C 1425.18,138.032 1417.85,138.865 1410.5,139.5C 1417.94,137.712 1425.61,136.379 1433.5,135.5 Z"/></g>
<g><path style="opacity:1" fill="#9c9c9c" d="M 1408.5,139.5 C 1407.49,140.765 1405.99,141.431 1404,141.5C 1398.82,142.121 1393.65,142.788 1388.5,143.5C 1394.87,141.344 1401.54,140.011 1408.5,139.5 Z"/></g>
<g><path style="opacity:1" fill="#565656" d="M 1388.5,143.5 C 1383.91,145.875 1378.91,146.875 1373.5,146.5C 1378.27,144.925 1383.27,143.925 1388.5,143.5 Z"/></g>
<g><path style="opacity:1" fill="#454545" d="M 1373.5,146.5 C 1369.27,148.956 1364.61,149.956 1359.5,149.5C 1363.64,146.911 1368.31,145.911 1373.5,146.5 Z"/></g>
<g><path style="opacity:1" fill="#656565" d="M 1355.5,149.5 C 1350.42,151.405 1345.09,152.739 1339.5,153.5C 1340.15,152.275 1341.32,151.608 1343,151.5C 1347.08,150.305 1351.25,149.639 1355.5,149.5 Z"/></g>
<g><path style="opacity:1" fill="#969696" d="M 1333.5,153.5 C 1327.09,155.47 1320.43,156.803 1313.5,157.5C 1319.87,155.344 1326.54,154.011 1333.5,153.5 Z"/></g>
<g><path style="opacity:1" fill="#8b8b8b" d="M 1310.5,157.5 C 1303.81,159.98 1296.81,161.646 1289.5,162.5C 1296.13,159.857 1303.13,158.19 1310.5,157.5 Z"/></g>
<g><path style="opacity:1" fill="#6a6a6a" d="M 1281.5,163.5 C 1271.28,166.79 1260.61,168.79 1249.5,169.5C 1259.95,166.855 1270.61,164.855 1281.5,163.5 Z"/></g>
<g><path style="opacity:1" fill="#878787" d="M 1249.5,169.5 C 1245.73,170.795 1241.73,171.461 1237.5,171.5C 1241.24,170.011 1245.24,169.344 1249.5,169.5 Z"/></g>
<g><path style="opacity:1" fill="#7d7d7d" d="M 1235.5,171.5 C 1231.84,173.342 1227.84,174.342 1223.5,174.5C 1227.16,172.658 1231.16,171.658 1235.5,171.5 Z"/></g>
<g><path style="opacity:1" fill="#747474" d="M 1223.5,174.5 C 1212.51,177.504 1201.18,179.504 1189.5,180.5C 1189.92,179.778 1190.58,179.278 1191.5,179C 1202.17,177.385 1212.83,175.885 1223.5,174.5 Z"/></g>
<g><path style="opacity:1" fill="#868686" d="M 1185.5,181.5 C 1181.68,182.482 1177.68,183.149 1173.5,183.5C 1177.18,181.75 1181.18,181.083 1185.5,181.5 Z"/></g>
<g><path style="opacity:1" fill="#8d8d8d" d="M 1171.5,183.5 C 1168.49,185.175 1165.16,185.841 1161.5,185.5C 1164.63,184.419 1167.96,183.753 1171.5,183.5 Z"/></g>
<g><path style="opacity:1" fill="#1ed65f" d="M 900.5,267.5 C 907.508,274.508 914.842,281.174 922.5,287.5C 934.18,298.848 945.18,310.848 955.5,323.5C 970.501,342.818 983.501,363.485 994.5,385.5C 1000.81,397.754 1006.14,410.421 1010.5,423.5C 1014.94,435.582 1018.6,447.916 1021.5,460.5C 1023.6,472.329 1025.93,483.996 1028.5,495.5C 1033.98,545.446 1029.65,594.446 1015.5,642.5C 999.667,692.529 974.333,736.862 939.5,775.5C 869.194,849.969 782.528,887.969 679.5,889.5C 622.949,889.195 569.615,876.195 519.5,850.5C 498.669,839.252 479.003,826.252 460.5,811.5C 443.561,797.562 427.894,782.229 413.5,765.5C 394.149,742.137 377.816,716.804 364.5,689.5C 319.445,587.02 320.611,485.02 368,383.5C 423.15,280.459 508.316,217.626 623.5,195C 726.412,180.386 818.746,204.553 900.5,267.5 Z"/></g>
<g><path style="opacity:1" fill="#4f4f4f" d="M 1551.5,213.5 C 1550.66,213.158 1550.33,212.492 1550.5,211.5C 1549.83,210.733 1548.99,210.066 1548,209.5C 1435.62,230.938 1323.12,252.105 1210.5,273C 1200.69,275.495 1196.52,281.661 1198,291.5C 1197.62,292.056 1197.12,292.389 1196.5,292.5C 1196.5,283.833 1196.5,275.167 1196.5,266.5C 1200.14,265.92 1203.81,265.42 1207.5,265C 1208.42,264.722 1209.08,264.222 1209.5,263.5C 1288.64,248.216 1367.97,233.716 1447.5,220C 1452.16,218.85 1456.82,217.517 1461.5,216C 1491.53,211.028 1521.53,205.861 1551.5,200.5C 1551.5,204.833 1551.5,209.167 1551.5,213.5 Z"/></g>
<g><path style="opacity:1" fill="#5b5b5b" d="M 1550.5,211.5 C 1525.05,215.907 1499.72,220.407 1474.5,225C 1444.58,231.884 1414.58,238.05 1384.5,243.5C 1367.64,245.032 1350.98,247.532 1334.5,251C 1293.59,258.402 1252.92,266.402 1212.5,275C 1203.86,278.112 1199.52,284.279 1199.5,293.5C 1199.21,297.792 1199.55,301.792 1200.5,305.5C 1199.43,306.434 1198.1,306.768 1196.5,306.5C 1196.5,301.833 1196.5,297.167 1196.5,292.5C 1197.12,292.389 1197.62,292.056 1198,291.5C 1196.52,281.661 1200.69,275.495 1210.5,273C 1323.12,252.105 1435.62,230.938 1548,209.5C 1548.99,210.066 1549.83,210.733 1550.5,211.5 Z"/></g>
<g><path style="opacity:1" fill="#6d6d6d" d="M 1593.5,121.5 C 1594.17,121.5 1594.5,121.833 1594.5,122.5C 1594.5,123.167 1594.5,123.833 1594.5,124.5C 1594.49,128.446 1596.49,130.113 1600.5,129.5C 1600.71,130.922 1601.21,132.255 1602,133.5C 1602.67,153.167 1602.67,172.833 1602,192.5C 1601.76,195.289 1601.09,197.956 1600,200.5C 1599.67,366.5 1599.33,532.5 1599,698.5C 1598.25,707.209 1597.25,715.875 1596,724.5C 1594.26,727.909 1593.26,731.576 1593,735.5C 1590.14,741.227 1587.3,746.894 1584.5,752.5C 1590.54,735.686 1594.37,718.353 1596,700.5C 1596.67,539.5 1596.67,378.5 1596,217.5C 1595.7,213.471 1595.2,209.471 1594.5,205.5C 1595.44,200.854 1596.27,196.187 1597,191.5C 1597.67,173.833 1597.67,156.167 1597,138.5C 1596.79,136.942 1596.29,135.609 1595.5,134.5C 1594.98,132.694 1594.31,131.028 1593.5,129.5C 1593.5,126.833 1593.5,124.167 1593.5,121.5 Z"/></g>
<g><path style="opacity:1" fill="#686868" d="M 1550.5,211.5 C 1550.33,212.492 1550.66,213.158 1551.5,213.5C 1551.83,223.348 1551.49,233.014 1550.5,242.5C 1550.5,238.167 1550.5,233.833 1550.5,229.5C 1550.5,228.167 1550.5,226.833 1550.5,225.5C 1550.5,224.833 1550.5,224.167 1550.5,223.5C 1550.5,221.5 1550.5,219.5 1550.5,217.5C 1549.9,216.861 1549.07,216.528 1548,216.5C 1531.51,218.832 1515.01,220.999 1498.5,223C 1474.05,226.955 1450.05,231.955 1426.5,238C 1412.56,240.294 1398.56,242.128 1384.5,243.5C 1414.58,238.05 1444.58,231.884 1474.5,225C 1499.72,220.407 1525.05,215.907 1550.5,211.5 Z"/></g>
<g><path style="opacity:1" fill="#bababa" d="M 1594.5,122.5 C 1600.09,121.743 1604.26,123.743 1607,128.5C 1608.11,139.787 1608.61,151.12 1608.5,162.5C 1608.59,174.536 1608.09,186.536 1607,198.5C 1606.67,366.167 1606.33,533.833 1606,701.5C 1605.37,709.798 1603.87,717.798 1601.5,725.5C 1602.35,716.849 1603.01,708.182 1603.5,699.5C 1604.18,530.988 1604.84,362.322 1605.5,193.5C 1605.67,173.164 1605.5,152.831 1605,132.5C 1604.41,126.115 1600.91,123.448 1594.5,124.5C 1594.5,123.833 1594.5,123.167 1594.5,122.5 Z"/></g>
<g><path style="opacity:1" fill="#969696" d="M 1594.5,124.5 C 1600.91,123.448 1604.41,126.115 1605,132.5C 1605.5,152.831 1605.67,173.164 1605.5,193.5C 1604.69,195.292 1604.19,197.292 1604,199.5C 1603.5,366.166 1603.33,532.833 1603.5,699.5C 1603.01,708.182 1602.35,716.849 1601.5,725.5C 1599.24,731.773 1597.08,738.106 1595,744.5C 1594.62,745.942 1593.79,746.942 1592.5,747.5C 1596.25,733.406 1599.08,719.073 1601,704.5C 1601.33,536.167 1601.67,367.833 1602,199.5C 1603.15,188.093 1603.65,176.593 1603.5,165C 1603.33,154.167 1603.17,143.333 1603,132.5C 1602.62,131.058 1601.79,130.058 1600.5,129.5C 1596.49,130.113 1594.49,128.446 1594.5,124.5 Z"/></g>
<g><path style="opacity:1" fill="#ababab" d="M 1605.5,193.5 C 1604.84,362.322 1604.18,530.988 1603.5,699.5C 1603.33,532.833 1603.5,366.166 1604,199.5C 1604.19,197.292 1604.69,195.292 1605.5,193.5 Z"/></g>
<g><path style="opacity:1" fill="#dcdcdc" d="M 1594.5,117.5 C 1597.85,117.335 1601.18,117.502 1604.5,118C 1607.46,120.787 1609.8,123.953 1611.5,127.5C 1611.92,150.202 1611.42,172.868 1610,195.5C 1609.67,363.167 1609.33,530.833 1609,698.5C 1607.85,707.863 1606.52,717.196 1605,726.5C 1602.69,734.1 1600.36,741.767 1598,749.5C 1596.69,752.621 1594.86,755.287 1592.5,757.5C 1594.9,748.908 1598.07,740.575 1602,732.5C 1604.48,723.339 1606.15,714.006 1607,704.5C 1607.33,536.167 1607.67,367.833 1608,199.5C 1609.1,187.206 1609.6,174.873 1609.5,162.5C 1609.62,150.779 1609.12,139.112 1608,127.5C 1604.91,122.558 1600.41,120.225 1594.5,120.5C 1594.5,119.5 1594.5,118.5 1594.5,117.5 Z"/></g>
<g><path style="opacity:1" fill="#848484" d="M 1600.5,129.5 C 1601.79,130.058 1602.62,131.058 1603,132.5C 1603.17,143.333 1603.33,154.167 1603.5,165C 1603.65,176.593 1603.15,188.093 1602,199.5C 1601.67,367.833 1601.33,536.167 1601,704.5C 1599.08,719.073 1596.25,733.406 1592.5,747.5C 1588.9,749.326 1586.74,752.326 1586,756.5C 1583.83,758.866 1581.66,761.199 1579.5,763.5C 1580.58,760.352 1581.91,757.352 1583.5,754.5C 1583.33,753.508 1583.66,752.842 1584.5,752.5C 1587.3,746.894 1590.14,741.227 1593,735.5C 1593.26,731.576 1594.26,727.909 1596,724.5C 1597.25,715.875 1598.25,707.209 1599,698.5C 1599.33,532.5 1599.67,366.5 1600,200.5C 1601.09,197.956 1601.76,195.289 1602,192.5C 1602.67,172.833 1602.67,153.167 1602,133.5C 1601.21,132.255 1600.71,130.922 1600.5,129.5 Z"/></g>
<g><path style="opacity:1" fill="#cacaca" d="M 1593.5,105.5 C 1593.83,105.5 1594.17,105.5 1594.5,105.5C 1594.5,109.5 1594.5,113.5 1594.5,117.5C 1594.5,118.5 1594.5,119.5 1594.5,120.5C 1600.41,120.225 1604.91,122.558 1608,127.5C 1609.12,139.112 1609.62,150.779 1609.5,162.5C 1609.6,174.873 1609.1,187.206 1608,199.5C 1607.67,367.833 1607.33,536.167 1607,704.5C 1606.15,714.006 1604.48,723.339 1602,732.5C 1598.07,740.575 1594.9,748.908 1592.5,757.5C 1587.45,763.246 1583.11,769.58 1579.5,776.5C 1568.56,789.281 1556.22,800.447 1542.5,810C 1535.2,812.245 1528.2,815.245 1521.5,819C 1511.86,821.493 1502.2,823.826 1492.5,826C 1481.5,826.667 1470.5,826.667 1459.5,826C 1446.61,823.69 1433.94,820.857 1421.5,817.5C 1421.44,814.95 1420.11,813.45 1417.5,813C 1414.21,812.118 1410.88,811.452 1407.5,811C 1406.83,810 1406.17,809 1405.5,808C 1401.9,806.694 1398.56,805.028 1395.5,803C 1393.64,799.09 1390.64,796.423 1386.5,795C 1379.36,788.196 1372.53,781.029 1366,773.5C 1365.34,771.187 1364.84,768.854 1364.5,766.5C 1368.38,772.06 1372.71,777.394 1377.5,782.5C 1383.26,785.426 1387.93,789.593 1391.5,795C 1401.09,801.473 1411.09,807.473 1421.5,813C 1433.79,816.459 1446.12,819.792 1458.5,823C 1481.08,825.434 1502.92,822.601 1524,814.5C 1533.66,809.139 1543.49,804.305 1553.5,800C 1562.67,792.167 1571.17,783.667 1579,774.5C 1582.61,767.896 1586.61,761.563 1591,755.5C 1591.4,752.793 1591.9,750.127 1592.5,747.5C 1593.79,746.942 1594.62,745.942 1595,744.5C 1597.08,738.106 1599.24,731.773 1601.5,725.5C 1603.87,717.798 1605.37,709.798 1606,701.5C 1606.33,533.833 1606.67,366.167 1607,198.5C 1608.09,186.536 1608.59,174.536 1608.5,162.5C 1608.61,151.12 1608.11,139.787 1607,128.5C 1604.26,123.743 1600.09,121.743 1594.5,122.5C 1594.5,121.833 1594.17,121.5 1593.5,121.5C 1593.5,120.833 1593.5,120.167 1593.5,119.5C 1593.5,114.833 1593.5,110.167 1593.5,105.5 Z"/></g>
<g><path style="opacity:1" fill="#f0f0f0" d="M 1550.5,225.5 C 1550.5,226.833 1550.5,228.167 1550.5,229.5C 1439.94,250.115 1329.61,270.615 1219.5,291C 1216.83,294.492 1216.17,298.326 1217.5,302.5C 1216.17,302.5 1214.83,302.5 1213.5,302.5C 1213.33,299.15 1213.5,295.817 1214,292.5C 1215.28,290.269 1217.11,288.602 1219.5,287.5C 1278.07,275.912 1336.41,264.245 1394.5,252.5C 1397.55,251.938 1400.55,251.271 1403.5,250.5C 1407.18,250.665 1410.85,250.499 1414.5,250C 1460.07,242.795 1505.4,234.628 1550.5,225.5 Z"/></g>
<g><path style="opacity:1" fill="#e8e8e8" d="M 1611.5,127.5 C 1612.96,157.033 1612.63,186.7 1610.5,216.5C 1611.15,376.851 1611.82,537.184 1612.5,697.5C 1611.14,724.081 1603.3,748.414 1589,770.5C 1586.83,771.585 1584.83,772.919 1583,774.5C 1580.13,779.59 1577.29,784.59 1574.5,789.5C 1529.19,832.306 1477.19,842.14 1418.5,819C 1383.28,801.118 1358.61,773.785 1344.5,737C 1344.64,736.228 1344.98,735.561 1345.5,735C 1343.46,733.764 1342.29,731.931 1342,729.5C 1341.13,726.515 1340.8,723.515 1341,720.5C 1341.65,721.696 1342.15,721.696 1342.5,720.5C 1340.51,717.85 1339.51,714.85 1339.5,711.5C 1342.55,720.632 1346.22,729.632 1350.5,738.5C 1350.68,741.216 1351.18,743.883 1352,746.5C 1355.03,752.186 1358.03,757.853 1361,763.5C 1362.04,764.71 1363.21,765.71 1364.5,766.5C 1364.84,768.854 1365.34,771.187 1366,773.5C 1372.53,781.029 1379.36,788.196 1386.5,795C 1390.64,796.423 1393.64,799.09 1395.5,803C 1398.56,805.028 1401.9,806.694 1405.5,808C 1406.17,809 1406.83,810 1407.5,811C 1410.88,811.452 1414.21,812.118 1417.5,813C 1420.11,813.45 1421.44,814.95 1421.5,817.5C 1433.94,820.857 1446.61,823.69 1459.5,826C 1470.5,826.667 1481.5,826.667 1492.5,826C 1502.2,823.826 1511.86,821.493 1521.5,819C 1528.2,815.245 1535.2,812.245 1542.5,810C 1556.22,800.447 1568.56,789.281 1579.5,776.5C 1583.11,769.58 1587.45,763.246 1592.5,757.5C 1594.86,755.287 1596.69,752.621 1598,749.5C 1600.36,741.767 1602.69,734.1 1605,726.5C 1606.52,717.196 1607.85,707.863 1609,698.5C 1609.33,530.833 1609.67,363.167 1610,195.5C 1611.42,172.868 1611.92,150.202 1611.5,127.5 Z"/></g>
<g><path style="opacity:1" fill="#fbfbfb" d="M 1550.5,229.5 C 1550.5,233.833 1550.5,238.167 1550.5,242.5C 1541.52,243.326 1532.85,244.993 1524.5,247.5C 1521.17,247.215 1518.17,247.882 1515.5,249.5C 1514.17,249.5 1512.83,249.5 1511.5,249.5C 1506.53,249.656 1501.86,250.656 1497.5,252.5C 1496.17,252.5 1494.83,252.5 1493.5,252.5C 1491,252.749 1488.5,253.083 1486,253.5C 1484.32,253.608 1483.15,254.275 1482.5,255.5C 1482.17,255.5 1481.83,255.5 1481.5,255.5C 1475.81,255.24 1470.47,256.24 1465.5,258.5C 1463.83,258.5 1462.17,258.5 1460.5,258.5C 1451.27,260.537 1441.94,262.037 1432.5,263C 1431.58,263.278 1430.92,263.778 1430.5,264.5C 1425.39,265.588 1420.39,266.588 1415.5,267.5C 1409.82,267.378 1404.49,268.378 1399.5,270.5C 1394.63,270.358 1389.96,271.024 1385.5,272.5C 1381.2,272.755 1377.2,273.755 1373.5,275.5C 1373.17,275.5 1372.83,275.5 1372.5,275.5C 1369.81,275.336 1367.15,275.503 1364.5,276C 1363.94,276.383 1363.61,276.883 1363.5,277.5C 1354.12,278.554 1344.79,279.888 1335.5,281.5C 1331.16,281.658 1327.16,282.658 1323.5,284.5C 1323.17,284.5 1322.83,284.5 1322.5,284.5C 1316.57,284.783 1310.9,285.783 1305.5,287.5C 1304.83,287.5 1304.17,287.5 1303.5,287.5C 1298.81,287.551 1294.48,288.551 1290.5,290.5C 1284.68,291.38 1279.02,292.38 1273.5,293.5C 1267.82,293.378 1262.49,294.378 1257.5,296.5C 1253.04,297.644 1248.37,298.31 1243.5,298.5C 1239.96,298.753 1236.63,299.419 1233.5,300.5C 1229.96,300.753 1226.63,301.419 1223.5,302.5C 1221.5,302.5 1219.5,302.5 1217.5,302.5C 1216.17,298.326 1216.83,294.492 1219.5,291C 1329.61,270.615 1439.94,250.115 1550.5,229.5 Z"/></g>
<g><path style="opacity:1" fill="#4c4c4c" d="M 1593.5,129.5 C 1594.31,131.028 1594.98,132.694 1595.5,134.5C 1595.28,149.014 1595.62,163.514 1596.5,178C 1596.03,184.169 1595.53,190.336 1595,196.5C 1594.31,197.025 1593.81,197.692 1593.5,198.5C 1594.46,363.966 1594.79,529.466 1594.5,695C 1593.17,723.206 1584.01,748.373 1567,770.5C 1559.62,778.05 1552.12,785.383 1544.5,792.5C 1532.23,799.764 1519.23,805.598 1505.5,810C 1480.89,815.541 1456.89,814.208 1433.5,806C 1430.83,804.667 1428.17,803.333 1425.5,802C 1423.5,801.667 1421.5,801.333 1419.5,801C 1418.03,800.29 1417.36,799.124 1417.5,797.5C 1422.72,799.639 1428.06,801.473 1433.5,803C 1462.7,808.496 1491.03,805.496 1518.5,794C 1561.69,771.476 1585.85,735.976 1591,687.5C 1591.33,519.5 1591.67,351.5 1592,183.5C 1593.38,165.534 1593.88,147.534 1593.5,129.5 Z"/></g>
<g><path style="opacity:1" fill="#7e7e7e" d="M 1550.5,217.5 C 1543.98,218.526 1537.65,219.859 1531.5,221.5C 1491.55,226.923 1451.88,234.09 1412.5,243C 1389.39,244.958 1366.72,248.958 1344.5,255C 1339.17,255.333 1333.83,255.667 1328.5,256C 1322.42,258.581 1316.09,260.581 1309.5,262C 1294.4,264.92 1279.4,267.754 1264.5,270.5C 1258.47,272.55 1252.14,273.55 1245.5,273.5C 1245.5,274.5 1245.5,275.5 1245.5,276.5C 1234.13,277.803 1222.8,279.303 1211.5,281C 1208.37,283.388 1206.53,286.554 1206,290.5C 1205.5,295.155 1205.33,299.821 1205.5,304.5C 1206.83,304.5 1208.17,304.5 1209.5,304.5C 1209.5,304.833 1209.5,305.167 1209.5,305.5C 1207.5,305.5 1205.5,305.5 1203.5,305.5C 1203.33,299.158 1203.5,292.825 1204,286.5C 1205.1,283.063 1207.27,280.563 1210.5,279C 1213.83,278 1217.17,277 1220.5,276C 1245.62,272.176 1270.62,267.843 1295.5,263C 1319.17,255.796 1343.5,250.796 1368.5,248C 1374.19,247.305 1379.53,245.805 1384.5,243.5C 1398.56,242.128 1412.56,240.294 1426.5,238C 1450.05,231.955 1474.05,226.955 1498.5,223C 1515.01,220.999 1531.51,218.832 1548,216.5C 1549.07,216.528 1549.9,216.861 1550.5,217.5 Z"/></g>
<g><path style="opacity:1" fill="#c3c3c3" d="M 1154.5,187.5 C 1155.17,347.503 1154.5,507.17 1152.5,666.5C 1151.83,665.5 1151.17,664.5 1150.5,663.5C 1151.5,663.414 1152.33,663.748 1153,664.5C 1153.17,505.333 1153.67,346.333 1154.5,187.5 Z"/></g>
<g><path style="opacity:1" fill="#dbdbdb" d="M 1550.5,223.5 C 1550.5,224.167 1550.5,224.833 1550.5,225.5C 1505.4,234.628 1460.07,242.795 1414.5,250C 1410.85,250.499 1407.18,250.665 1403.5,250.5C 1405.5,249.833 1407.5,249.167 1409.5,248.5C 1432,243.7 1454.67,239.867 1477.5,237C 1501.52,230.996 1525.85,226.496 1550.5,223.5 Z"/></g>
<g><path style="opacity:1" fill="#434343" d="M 1161.5,185.5 C 1159.79,186.738 1157.79,187.405 1155.5,187.5C 1155.5,347.5 1155.5,507.5 1155.5,667.5C 1154.21,667.737 1153.21,667.404 1152.5,666.5C 1154.5,507.17 1155.17,347.503 1154.5,187.5C 1156.51,186.076 1158.85,185.41 1161.5,185.5 Z"/></g>
<g><path style="opacity:1" fill="#b5b5b5" d="M 1550.5,217.5 C 1550.5,219.5 1550.5,221.5 1550.5,223.5C 1525.85,226.496 1501.52,230.996 1477.5,237C 1454.67,239.867 1432,243.7 1409.5,248.5C 1381.22,252.055 1353.22,257.222 1325.5,264C 1289.31,269.521 1253.31,275.855 1217.5,283C 1214.46,284.031 1211.96,285.865 1210,288.5C 1209.18,293.684 1209.35,298.684 1210.5,303.5C 1212.83,303.5 1215.17,303.5 1217.5,303.5C 1215.05,304.473 1212.39,304.806 1209.5,304.5C 1208.17,304.5 1206.83,304.5 1205.5,304.5C 1205.33,299.821 1205.5,295.155 1206,290.5C 1206.53,286.554 1208.37,283.388 1211.5,281C 1222.8,279.303 1234.13,277.803 1245.5,276.5C 1245.5,275.5 1245.5,274.5 1245.5,273.5C 1252.14,273.55 1258.47,272.55 1264.5,270.5C 1273.39,269.13 1282.39,268.297 1291.5,268C 1314.36,264.361 1337.03,259.695 1359.5,254C 1375.75,251.605 1392.08,249.272 1408.5,247C 1449.55,238.471 1490.55,229.971 1531.5,221.5C 1537.65,219.859 1543.98,218.526 1550.5,217.5 Z"/></g>
<g><path style="opacity:1" fill="#616161" d="M 1550.5,242.5 C 1545.26,244.103 1539.92,245.603 1534.5,247C 1531.18,247.498 1527.85,247.665 1524.5,247.5C 1532.85,244.993 1541.52,243.326 1550.5,242.5 Z"/></g>
<g><path style="opacity:1" fill="#646464" d="M 1524.5,247.5 C 1521.73,248.657 1518.73,249.324 1515.5,249.5C 1518.17,247.882 1521.17,247.215 1524.5,247.5 Z"/></g>
<g><path style="opacity:1" fill="#989898" d="M 1531.5,221.5 C 1490.55,229.971 1449.55,238.471 1408.5,247C 1392.08,249.272 1375.75,251.605 1359.5,254C 1337.03,259.695 1314.36,264.361 1291.5,268C 1282.39,268.297 1273.39,269.13 1264.5,270.5C 1279.4,267.754 1294.4,264.92 1309.5,262C 1316.09,260.581 1322.42,258.581 1328.5,256C 1333.83,255.667 1339.17,255.333 1344.5,255C 1366.72,248.958 1389.39,244.958 1412.5,243C 1451.88,234.09 1491.55,226.923 1531.5,221.5 Z"/></g>
<g><path style="opacity:1" fill="#7d7d7d" d="M 1511.5,249.5 C 1511.08,250.222 1510.42,250.722 1509.5,251C 1505.49,251.501 1501.49,252.001 1497.5,252.5C 1501.86,250.656 1506.53,249.656 1511.5,249.5 Z"/></g>
<g><path style="opacity:1" fill="#989898" d="M 1493.5,252.5 C 1490.11,254.118 1486.45,255.118 1482.5,255.5C 1483.15,254.275 1484.32,253.608 1486,253.5C 1488.5,253.083 1491,252.749 1493.5,252.5 Z"/></g>
<g><path style="opacity:1" fill="#6c6c6c" d="M 1481.5,255.5 C 1476.42,257.143 1471.08,258.143 1465.5,258.5C 1470.47,256.24 1475.81,255.24 1481.5,255.5 Z"/></g>
<g><path style="opacity:1" fill="#989898" d="M 1460.5,258.5 C 1451.01,262.057 1441.01,264.057 1430.5,264.5C 1430.92,263.778 1431.58,263.278 1432.5,263C 1441.94,262.037 1451.27,260.537 1460.5,258.5 Z"/></g>
<g><path style="opacity:1" fill="#515151" d="M 1415.5,267.5 C 1410.51,269.622 1405.18,270.622 1399.5,270.5C 1404.49,268.378 1409.82,267.378 1415.5,267.5 Z"/></g>
<g><path style="opacity:1" fill="#585858" d="M 1551.5,282.5 C 1550.66,282.158 1550.33,281.492 1550.5,280.5C 1550.5,279.5 1550.5,278.5 1550.5,277.5C 1540.06,277.688 1529.73,278.855 1519.5,281C 1415.47,300.337 1311.47,319.67 1207.5,339C 1202.2,341.129 1198.87,344.962 1197.5,350.5C 1198.17,489.696 1198.83,628.863 1199.5,768C 1198.75,768.671 1198.41,769.504 1198.5,770.5C 1197.51,770.672 1196.84,770.338 1196.5,769.5C 1196.5,623.5 1196.5,477.5 1196.5,331.5C 1199.19,331.664 1201.85,331.497 1204.5,331C 1205.06,330.617 1205.39,330.117 1205.5,329.5C 1320.41,307.622 1435.75,286.622 1551.5,266.5C 1551.5,271.833 1551.5,277.167 1551.5,282.5 Z"/></g>
<g><path style="opacity:1" fill="#7b7b7b" d="M 1385.5,272.5 C 1381.84,274.342 1377.84,275.342 1373.5,275.5C 1377.2,273.755 1381.2,272.755 1385.5,272.5 Z"/></g>
<g><path style="opacity:1" fill="#dcdcdc" d="M 1394.5,252.5 C 1336.41,264.245 1278.07,275.912 1219.5,287.5C 1217.11,288.602 1215.28,290.269 1214,292.5C 1213.5,295.817 1213.33,299.15 1213.5,302.5C 1214.83,302.5 1216.17,302.5 1217.5,302.5C 1219.5,302.5 1221.5,302.5 1223.5,302.5C 1221.74,303.461 1219.74,303.795 1217.5,303.5C 1215.17,303.5 1212.83,303.5 1210.5,303.5C 1209.91,297.895 1210.74,292.561 1213,287.5C 1214.61,286.853 1216.11,286.02 1217.5,285C 1261.05,276.242 1304.72,268.242 1348.5,261C 1363.74,257.405 1379.08,254.571 1394.5,252.5 Z"/></g>
<g><path style="opacity:1" fill="#616161" d="M 1372.5,275.5 C 1369.73,276.657 1366.73,277.324 1363.5,277.5C 1363.61,276.883 1363.94,276.383 1364.5,276C 1367.15,275.503 1369.81,275.336 1372.5,275.5 Z"/></g>
<g><path style="opacity:1" fill="#6a6a6a" d="M 1384.5,243.5 C 1379.53,245.805 1374.19,247.305 1368.5,248C 1343.5,250.796 1319.17,255.796 1295.5,263C 1270.62,267.843 1245.62,272.176 1220.5,276C 1217.17,277 1213.83,278 1210.5,279C 1207.27,280.563 1205.1,283.063 1204,286.5C 1203.5,292.825 1203.33,299.158 1203.5,305.5C 1202.5,305.5 1201.5,305.5 1200.5,305.5C 1199.55,301.792 1199.21,297.792 1199.5,293.5C 1199.52,284.279 1203.86,278.112 1212.5,275C 1252.92,266.402 1293.59,258.402 1334.5,251C 1350.98,247.532 1367.64,245.032 1384.5,243.5 Z"/></g>
<g><path style="opacity:1" fill="#606060" d="M 1550.5,280.5 C 1548.86,280.714 1547.36,280.38 1546,279.5C 1542.9,281.533 1539.4,282.7 1535.5,283C 1513.5,286.667 1491.5,290.333 1469.5,294C 1440.73,299.728 1412.07,305.394 1383.5,311C 1325.8,320.281 1268.47,330.614 1211.5,342C 1209.09,343.955 1206.59,345.789 1204,347.5C 1203.78,349.384 1203.12,351.051 1202,352.5C 1201.81,497.507 1201.31,642.507 1200.5,787.5C 1200.21,794.178 1199.71,800.844 1199,807.5C 1197.09,812.611 1195.92,817.944 1195.5,823.5C 1193.92,824.936 1192.42,826.602 1191,828.5C 1190.52,829.448 1190.35,830.448 1190.5,831.5C 1188.38,834.356 1186.21,837.356 1184,840.5C 1183.67,841.833 1183.33,843.167 1183,844.5C 1175.18,853.809 1167.01,862.975 1158.5,872C 1150.01,878.417 1141.01,884.083 1131.5,889C 1121.69,892.436 1111.69,895.436 1101.5,898C 1067.48,903.786 1036.48,896.953 1008.5,877.5C 1007.61,876.675 1007.28,875.675 1007.5,874.5C 1014.53,878.348 1021.87,881.681 1029.5,884.5C 1029.71,886.549 1030.54,886.883 1032,885.5C 1037.02,889.038 1042.35,891.038 1048,891.5C 1072.41,898.726 1096.57,897.893 1120.5,889C 1170.17,867.874 1195.5,829.874 1196.5,775C 1198.04,773.89 1198.7,772.39 1198.5,770.5C 1198.41,769.504 1198.75,768.671 1199.5,768C 1198.83,628.863 1198.17,489.696 1197.5,350.5C 1198.87,344.962 1202.2,341.129 1207.5,339C 1311.47,319.67 1415.47,300.337 1519.5,281C 1529.73,278.855 1540.06,277.688 1550.5,277.5C 1550.5,278.5 1550.5,279.5 1550.5,280.5 Z"/></g>
<g><path style="opacity:1" fill="#c8c8c8" d="M 1409.5,248.5 C 1407.5,249.167 1405.5,249.833 1403.5,250.5C 1400.55,251.271 1397.55,251.938 1394.5,252.5C 1379.08,254.571 1363.74,257.405 1348.5,261C 1304.72,268.242 1261.05,276.242 1217.5,285C 1216.11,286.02 1214.61,286.853 1213,287.5C 1210.74,292.561 1209.91,297.895 1210.5,303.5C 1209.35,298.684 1209.18,293.684 1210,288.5C 1211.96,285.865 1214.46,284.031 1217.5,283C 1253.31,275.855 1289.31,269.521 1325.5,264C 1353.22,257.222 1381.22,252.055 1409.5,248.5 Z"/></g>
<g><path style="opacity:1" fill="#888888" d="M 1335.5,281.5 C 1331.84,283.342 1327.84,284.342 1323.5,284.5C 1327.16,282.658 1331.16,281.658 1335.5,281.5 Z"/></g>
<g><path style="opacity:1" fill="#868686" d="M 1322.5,284.5 C 1317.1,286.217 1311.43,287.217 1305.5,287.5C 1310.9,285.783 1316.57,284.783 1322.5,284.5 Z"/></g>
<g><path style="opacity:1" fill="#9e9e9e" d="M 1303.5,287.5 C 1299.43,289.118 1295.09,290.118 1290.5,290.5C 1294.48,288.551 1298.81,287.551 1303.5,287.5 Z"/></g>
<g><path style="opacity:1" fill="#8d8d8d" d="M 1550.5,290.5 C 1550.83,290.5 1551.17,290.5 1551.5,290.5C 1551.83,388.502 1551.5,486.502 1550.5,584.5C 1549.48,584.145 1548.81,583.478 1548.5,582.5C 1550.5,487.506 1551.16,392.173 1550.5,296.5C 1550.5,295.833 1550.5,295.167 1550.5,294.5C 1550.5,293.167 1550.5,291.833 1550.5,290.5 Z"/></g>
<g><path style="opacity:1" fill="#3a3a3a" d="M 1209.5,263.5 C 1209.08,264.222 1208.42,264.722 1207.5,265C 1203.81,265.42 1200.14,265.92 1196.5,266.5C 1196.5,275.167 1196.5,283.833 1196.5,292.5C 1196.5,297.167 1196.5,301.833 1196.5,306.5C 1198.1,306.768 1199.43,306.434 1200.5,305.5C 1201.5,305.5 1202.5,305.5 1203.5,305.5C 1205.5,305.5 1207.5,305.5 1209.5,305.5C 1204.71,306.725 1199.71,307.392 1194.5,307.5C 1194.33,293.829 1194.5,280.163 1195,266.5C 1199.66,264.809 1204.49,263.809 1209.5,263.5 Z"/></g>
<g><path style="opacity:1" fill="#575757" d="M 1273.5,293.5 C 1268.51,295.622 1263.18,296.622 1257.5,296.5C 1262.49,294.378 1267.82,293.378 1273.5,293.5 Z"/></g>
<g><path style="opacity:1" fill="#7f7f7f" d="M 1243.5,298.5 C 1243.08,299.222 1242.42,299.722 1241.5,300C 1238.85,300.497 1236.19,300.664 1233.5,300.5C 1236.63,299.419 1239.96,298.753 1243.5,298.5 Z"/></g>
<g><path style="opacity:1" fill="#979797" d="M 1550.5,286.5 C 1520.71,291.157 1491.04,296.657 1461.5,303C 1453.81,303.43 1446.15,304.097 1438.5,305C 1437.09,306.306 1435.42,307.14 1433.5,307.5C 1417.28,310.871 1400.94,313.371 1384.5,315C 1363.31,321.277 1341.64,325.277 1319.5,327C 1295.8,332.617 1271.8,336.95 1247.5,340C 1237.41,343.182 1227.07,345.182 1216.5,346C 1215.58,346.278 1214.92,346.778 1214.5,347.5C 1212.05,347.615 1210.05,348.615 1208.5,350.5C 1208.56,349.391 1208.89,348.391 1209.5,347.5C 1217.63,343.565 1226.29,341.065 1235.5,340C 1253.9,336.864 1272.23,333.531 1290.5,330C 1298.79,328.673 1307.13,327.673 1315.5,327C 1365.61,317.159 1415.61,307.159 1465.5,297C 1492.75,292.384 1520.09,288.217 1547.5,284.5C 1549.03,284.64 1550.03,285.307 1550.5,286.5 Z"/></g>
<g><path style="opacity:1" fill="#b5b7b6" d="M 955.5,323.5 C 956.847,324.171 958.014,324.171 959,323.5C 962.469,329.537 966.802,334.87 972,339.5C 973.818,345.301 976.484,350.634 980,355.5C 982.83,359.029 985.83,362.363 989,365.5C 992.777,372.071 996.777,378.405 1001,384.5C 1004.89,393.745 1009.22,402.745 1014,411.5C 1014.81,413.436 1015.31,415.436 1015.5,417.5C 1014.62,417.631 1013.96,417.298 1013.5,416.5C 1011.8,412.202 1009.63,408.202 1007,404.5C 1006.51,402.866 1006.34,401.199 1006.5,399.5C 1005.32,399.719 1004.32,399.386 1003.5,398.5C 1000.71,394.01 998.207,389.343 996,384.5C 995.617,385.056 995.117,385.389 994.5,385.5C 983.501,363.485 970.501,342.818 955.5,323.5 Z"/></g>
<g><path style="opacity:1" fill="#777777" d="M 1550.5,280.5 C 1550.33,281.492 1550.66,282.158 1551.5,282.5C 1551.5,285.167 1551.5,287.833 1551.5,290.5C 1551.17,290.5 1550.83,290.5 1550.5,290.5C 1550.5,289.5 1550.5,288.5 1550.5,287.5C 1550.5,287.167 1550.5,286.833 1550.5,286.5C 1550.03,285.307 1549.03,284.64 1547.5,284.5C 1520.09,288.217 1492.75,292.384 1465.5,297C 1415.61,307.159 1365.61,317.159 1315.5,327C 1307.13,327.673 1298.79,328.673 1290.5,330C 1272.23,333.531 1253.9,336.864 1235.5,340C 1226.29,341.065 1217.63,343.565 1209.5,347.5C 1208.17,347.5 1206.83,347.5 1205.5,347.5C 1205.31,349.564 1204.81,351.564 1204,353.5C 1203.67,496.167 1203.33,638.833 1203,781.5C 1202.76,783.852 1201.93,785.852 1200.5,787.5C 1201.31,642.507 1201.81,497.507 1202,352.5C 1203.12,351.051 1203.78,349.384 1204,347.5C 1206.59,345.789 1209.09,343.955 1211.5,342C 1268.47,330.614 1325.8,320.281 1383.5,311C 1412.07,305.394 1440.73,299.728 1469.5,294C 1491.5,290.333 1513.5,286.667 1535.5,283C 1539.4,282.7 1542.9,281.533 1546,279.5C 1547.36,280.38 1548.86,280.714 1550.5,280.5 Z"/></g>
<g><path style="opacity:1" fill="#929292" d="M 1208.5,350.5 C 1208.29,351.922 1207.79,353.255 1207,354.5C 1206.67,498.5 1206.33,642.5 1206,786.5C 1204.17,796.459 1202.67,806.459 1201.5,816.5C 1198.26,824.504 1194.59,832.504 1190.5,840.5C 1188.85,841.648 1187.35,842.981 1186,844.5C 1183.24,849.698 1180.24,854.698 1177,859.5C 1172.13,864.032 1167.63,868.866 1163.5,874C 1158.17,878 1152.83,882 1147.5,886C 1145.85,886.608 1144.18,887.108 1142.5,887.5C 1145.44,884.023 1149.11,881.523 1153.5,880C 1165.74,867.968 1176.91,855.134 1187,841.5C 1187.9,838.049 1189.06,834.716 1190.5,831.5C 1190.35,830.448 1190.52,829.448 1191,828.5C 1192.42,826.602 1193.92,824.936 1195.5,823.5C 1196.97,820.561 1198.47,817.561 1200,814.5C 1200.68,804.375 1202.02,794.375 1204,784.5C 1204.33,641.5 1204.67,498.5 1205,355.5C 1205.21,353.064 1206.37,351.398 1208.5,350.5 Z"/></g>
<g><path style="opacity:1" fill="#aeaeae" d="M 1214.5,347.5 C 1213.17,348.933 1211.67,350.267 1210,351.5C 1209.67,353.5 1209.33,355.5 1209,357.5C 1208.67,500.5 1208.33,643.5 1208,786.5C 1206.89,796.859 1204.72,806.859 1201.5,816.5C 1202.67,806.459 1204.17,796.459 1206,786.5C 1206.33,642.5 1206.67,498.5 1207,354.5C 1207.79,353.255 1208.29,351.922 1208.5,350.5C 1210.05,348.615 1212.05,347.615 1214.5,347.5 Z"/></g>
<g><path style="opacity:1" fill="#c3c3c3" d="M 1550.5,286.5 C 1550.5,286.833 1550.5,287.167 1550.5,287.5C 1536.36,288.96 1522.69,292.126 1509.5,297C 1470.57,303.575 1431.57,309.909 1392.5,316C 1386.61,317.119 1380.94,318.785 1375.5,321C 1323.68,330.553 1271.85,340.053 1220,349.5C 1216.07,351.099 1213.07,353.765 1211,357.5C 1210.67,501.167 1210.33,644.833 1210,788.5C 1208.75,796.175 1207.42,803.842 1206,811.5C 1203.54,817.681 1201.54,824.014 1200,830.5C 1197.57,835.033 1194.9,839.367 1192,843.5C 1191.51,844.793 1191.34,846.127 1191.5,847.5C 1188.35,849.313 1186.35,851.98 1185.5,855.5C 1179.93,860.454 1174.93,865.954 1170.5,872C 1163.93,875.902 1157.93,880.569 1152.5,886C 1151.26,886.791 1149.92,887.291 1148.5,887.5C 1153.65,883.197 1158.98,879.03 1164.5,875C 1170.63,867.864 1177.13,861.031 1184,854.5C 1189.43,846.072 1194.43,837.405 1199,828.5C 1200.47,824.622 1201.3,820.622 1201.5,816.5C 1204.72,806.859 1206.89,796.859 1208,786.5C 1208.33,643.5 1208.67,500.5 1209,357.5C 1209.33,355.5 1209.67,353.5 1210,351.5C 1211.67,350.267 1213.17,348.933 1214.5,347.5C 1214.92,346.778 1215.58,346.278 1216.5,346C 1227.07,345.182 1237.41,343.182 1247.5,340C 1271.8,336.95 1295.8,332.617 1319.5,327C 1341.64,325.277 1363.31,321.277 1384.5,315C 1400.94,313.371 1417.28,310.871 1433.5,307.5C 1435.42,307.14 1437.09,306.306 1438.5,305C 1446.15,304.097 1453.81,303.43 1461.5,303C 1491.04,296.657 1520.71,291.157 1550.5,286.5 Z"/></g>
<g><path style="opacity:1" fill="#d9d9d9" d="M 1550.5,287.5 C 1550.5,288.5 1550.5,289.5 1550.5,290.5C 1545.78,290.506 1541.12,291.006 1536.5,292C 1494.78,302.677 1452.44,310.677 1409.5,316C 1400.47,319.21 1391.13,321.544 1381.5,323C 1327.23,332.989 1272.9,342.656 1218.5,352C 1216.71,352.785 1215.21,353.951 1214,355.5C 1212.67,500.753 1212,646.086 1212,791.5C 1211.07,801.72 1209.07,811.72 1206,821.5C 1201.92,830.672 1197.08,839.339 1191.5,847.5C 1191.34,846.127 1191.51,844.793 1192,843.5C 1194.9,839.367 1197.57,835.033 1200,830.5C 1201.54,824.014 1203.54,817.681 1206,811.5C 1207.42,803.842 1208.75,796.175 1210,788.5C 1210.33,644.833 1210.67,501.167 1211,357.5C 1213.07,353.765 1216.07,351.099 1220,349.5C 1271.85,340.053 1323.68,330.553 1375.5,321C 1380.94,318.785 1386.61,317.119 1392.5,316C 1431.57,309.909 1470.57,303.575 1509.5,297C 1522.69,292.126 1536.36,288.96 1550.5,287.5 Z"/></g>
<g><path style="opacity:1" fill="#393939" d="M 1205.5,329.5 C 1205.39,330.117 1205.06,330.617 1204.5,331C 1201.85,331.497 1199.19,331.664 1196.5,331.5C 1196.5,477.5 1196.5,623.5 1196.5,769.5C 1195.83,769.5 1195.17,769.5 1194.5,769.5C 1194.33,623.5 1194.5,477.5 1195,331.5C 1198.4,330.46 1201.9,329.794 1205.5,329.5 Z"/></g>
<g><path style="opacity:1" fill="#838383" d="M 1209.5,347.5 C 1208.89,348.391 1208.56,349.391 1208.5,350.5C 1206.37,351.398 1205.21,353.064 1205,355.5C 1204.67,498.5 1204.33,641.5 1204,784.5C 1202.02,794.375 1200.68,804.375 1200,814.5C 1198.47,817.561 1196.97,820.561 1195.5,823.5C 1195.92,817.944 1197.09,812.611 1199,807.5C 1199.71,800.844 1200.21,794.178 1200.5,787.5C 1201.93,785.852 1202.76,783.852 1203,781.5C 1203.33,638.833 1203.67,496.167 1204,353.5C 1204.81,351.564 1205.31,349.564 1205.5,347.5C 1206.83,347.5 1208.17,347.5 1209.5,347.5 Z"/></g>
<g><path style="opacity:1" fill="#000100" d="M 596.5,375.5 C 676.565,372.3 754.898,382.133 831.5,405C 864.969,415.232 896.635,429.566 926.5,448C 936.423,458.035 939.256,469.868 935,483.5C 927.084,500.21 913.917,507.043 895.5,504C 845.549,475.905 792.216,457.572 735.5,449C 664.079,437.419 592.746,437.752 521.5,450C 506.014,453.051 490.681,456.718 475.5,461C 454.132,460.969 442.132,450.302 439.5,429C 441.079,409.751 451.413,398.418 470.5,395C 511.976,384.252 553.976,377.752 596.5,375.5 Z"/></g>
<g><path style="opacity:1" fill="#e0e0e0" d="M 922.5,287.5 C 922.56,286.957 922.893,286.624 923.5,286.5C 927.225,288.533 930.558,291.2 933.5,294.5C 935.113,295.427 936.779,296.261 938.5,297C 937.446,298.388 937.28,299.888 938,301.5C 939.43,301.694 940.93,301.694 942.5,301.5C 944.596,304.937 946.763,308.271 949,311.5C 952.066,311.933 954.399,313.933 956,317.5C 958.468,318.104 960.468,319.438 962,321.5C 967.798,330.83 974.298,339.83 981.5,348.5C 983.164,350.995 985.33,352.995 988,354.5C 991.603,362.55 995.936,370.217 1001,377.5C 1006.06,389.605 1012.22,401.272 1019.5,412.5C 1021.73,419.357 1023.4,426.357 1024.5,433.5C 1021.36,428.563 1018.36,423.563 1015.5,418.5C 1015.5,418.167 1015.5,417.833 1015.5,417.5C 1015.31,415.436 1014.81,413.436 1014,411.5C 1009.22,402.745 1004.89,393.745 1001,384.5C 996.777,378.405 992.777,372.071 989,365.5C 985.83,362.363 982.83,359.029 980,355.5C 976.484,350.634 973.818,345.301 972,339.5C 966.802,334.87 962.469,329.537 959,323.5C 958.014,324.171 956.847,324.171 955.5,323.5C 945.18,310.848 934.18,298.848 922.5,287.5 Z"/></g>
<g><path style="opacity:1" fill="#9c9c9c" d="M 1015.5,417.5 C 1015.5,417.833 1015.5,418.167 1015.5,418.5C 1021.48,436.058 1027.31,453.725 1033,471.5C 1034.92,479.409 1036.08,487.409 1036.5,495.5C 1032.06,481.756 1028.23,467.756 1025,453.5C 1020.87,443.582 1017.04,433.582 1013.5,423.5C 1012.5,423.5 1011.5,423.5 1010.5,423.5C 1006.14,410.421 1000.81,397.754 994.5,385.5C 995.117,385.389 995.617,385.056 996,384.5C 998.207,389.343 1000.71,394.01 1003.5,398.5C 1004.32,399.386 1005.32,399.719 1006.5,399.5C 1006.34,401.199 1006.51,402.866 1007,404.5C 1009.63,408.202 1011.8,412.202 1013.5,416.5C 1013.96,417.298 1014.62,417.631 1015.5,417.5 Z"/></g>
<g><path style="opacity:1" fill="#000100" d="M 599.5,495.5 C 680.108,493.256 757.441,507.756 831.5,539C 846.976,546.236 861.976,554.236 876.5,563C 889.058,574.581 890.891,587.748 882,602.5C 874.434,610.245 865.267,613.411 854.5,612C 781.917,570.435 703.584,549.935 619.5,550.5C 577.285,550.172 535.951,556.005 495.5,568C 479.75,570.039 469.25,563.539 464,548.5C 461.395,536.037 465.229,526.203 475.5,519C 500.991,509.397 527.325,503.063 554.5,500C 569.659,498.56 584.659,497.06 599.5,495.5 Z"/></g>
<g><path style="opacity:1" fill="#f0f1f0" d="M 1079.5,633.5 C 1069.32,633.173 1059.32,633.506 1049.5,634.5C 1048.17,634.5 1046.83,634.5 1045.5,634.5C 1043.5,634.5 1041.5,634.5 1039.5,634.5C 1040.98,629.931 1042.14,625.265 1043,620.5C 1043.68,609.734 1045.01,599.067 1047,588.5C 1049.39,560.103 1048.89,531.77 1045.5,503.5C 1043.21,493.776 1040.71,484.109 1038,474.5C 1037.67,470.833 1037.33,467.167 1037,463.5C 1034.46,459.219 1033.13,454.552 1033,449.5C 1030.88,445.656 1029.05,441.656 1027.5,437.5C 1026.71,436.23 1025.71,435.23 1024.5,434.5C 1024.5,434.167 1024.5,433.833 1024.5,433.5C 1023.4,426.357 1021.73,419.357 1019.5,412.5C 1012.22,401.272 1006.06,389.605 1001,377.5C 995.936,370.217 991.603,362.55 988,354.5C 985.33,352.995 983.164,350.995 981.5,348.5C 974.298,339.83 967.798,330.83 962,321.5C 960.468,319.438 958.468,318.104 956,317.5C 954.399,313.933 952.066,311.933 949,311.5C 946.763,308.271 944.596,304.937 942.5,301.5C 940.93,301.694 939.43,301.694 938,301.5C 937.28,299.888 937.446,298.388 938.5,297C 936.779,296.261 935.113,295.427 933.5,294.5C 930.558,291.2 927.225,288.533 923.5,286.5C 922.893,286.624 922.56,286.957 922.5,287.5C 914.842,281.174 907.508,274.508 900.5,267.5C 901.458,267.047 902.292,266.381 903,265.5C 905.988,267.49 908.655,269.823 911,272.5C 912.666,271.66 912.833,272.16 911.5,274C 912.744,274.456 913.577,273.956 914,272.5C 915.093,274.349 916.426,276.016 918,277.5C 918.333,276.833 918.667,276.167 919,275.5C 919.494,277.134 919.66,278.801 919.5,280.5C 924.084,281.572 927.75,284.072 930.5,288C 931.449,288.617 932.282,288.451 933,287.5C 933.333,288.833 933.667,290.167 934,291.5C 934.333,291.167 934.667,290.833 935,290.5C 937.899,292.888 939.732,295.888 940.5,299.5C 942.308,299.491 943.975,299.991 945.5,301C 1021.63,379.02 1056.8,473.187 1051,583.5C 1049.67,600.612 1047.5,617.278 1044.5,633.5C 1056.31,632.22 1067.97,632.22 1079.5,633.5 Z"/></g>
<g><path style="opacity:1" fill="#808080" d="M 1010.5,423.5 C 1011.5,423.5 1012.5,423.5 1013.5,423.5C 1017.04,433.582 1020.87,443.582 1025,453.5C 1028.23,467.756 1032.06,481.756 1036.5,495.5C 1041.88,542.103 1040.21,588.436 1031.5,634.5C 1031.75,635.713 1032.41,636.38 1033.5,636.5C 1034.17,636.5 1034.83,636.5 1035.5,636.5C 1035.5,637.167 1035.17,637.5 1034.5,637.5C 1032.83,637.5 1031.17,637.5 1029.5,637.5C 1032.87,618.629 1035.37,599.629 1037,580.5C 1039,546.519 1036.67,512.852 1030,479.5C 1027.79,472.791 1025.46,466.125 1023,459.5C 1022.62,460.056 1022.12,460.389 1021.5,460.5C 1018.6,447.916 1014.94,435.582 1010.5,423.5 Z"/></g>
<g><path style="opacity:1" fill="#939393" d="M 1476.5,550.5 C 1464.75,550.103 1453.09,550.77 1441.5,552.5C 1441.61,551.883 1441.94,551.383 1442.5,551C 1453.97,549.331 1465.3,549.164 1476.5,550.5 Z"/></g>
<g><path style="opacity:1" fill="#a9a9a9" d="M 1476.5,550.5 C 1481.12,550.156 1485.46,550.823 1489.5,552.5C 1484.9,552.72 1480.57,552.054 1476.5,550.5 Z"/></g>
<g><path style="opacity:1" fill="#656565" d="M 1437.5,552.5 C 1434.55,554.41 1431.21,555.41 1427.5,555.5C 1430.5,553.723 1433.84,552.723 1437.5,552.5 Z"/></g>
<g><path style="opacity:1" fill="#a1a1a1" d="M 1509.5,558.5 C 1513.85,558.889 1517.51,560.556 1520.5,563.5C 1516.59,562.231 1512.93,560.565 1509.5,558.5 Z"/></g>
<g><path style="opacity:1" fill="#8f8f8f" d="M 1520.5,563.5 C 1522.97,563.755 1524.97,564.755 1526.5,566.5C 1524.03,566.245 1522.03,565.245 1520.5,563.5 Z"/></g>
<g><path style="opacity:1" fill="#dcdcdc" d="M 1024.5,434.5 C 1025.71,435.23 1026.71,436.23 1027.5,437.5C 1029.05,441.656 1030.88,445.656 1033,449.5C 1033.13,454.552 1034.46,459.219 1037,463.5C 1037.33,467.167 1037.67,470.833 1038,474.5C 1040.71,484.109 1043.21,493.776 1045.5,503.5C 1048.89,531.77 1049.39,560.103 1047,588.5C 1045.01,599.067 1043.68,609.734 1043,620.5C 1042.14,625.265 1040.98,629.931 1039.5,634.5C 1038.41,634.38 1037.75,633.713 1037.5,632.5C 1045.16,597.915 1047.66,562.915 1045,527.5C 1043.37,510.307 1040.71,493.307 1037,476.5C 1032.69,462.418 1028.52,448.418 1024.5,434.5 Z"/></g>
<g><path style="opacity:1" fill="#6d6d6d" d="M 1029.5,637.5 C 1028.5,637.5 1027.5,637.5 1026.5,637.5C 1028.14,626.67 1030.3,616.003 1033,605.5C 1037.09,565.999 1035.75,526.665 1029,487.5C 1028.5,490.146 1028.34,492.813 1028.5,495.5C 1025.93,483.996 1023.6,472.329 1021.5,460.5C 1022.12,460.389 1022.62,460.056 1023,459.5C 1025.46,466.125 1027.79,472.791 1030,479.5C 1036.67,512.852 1039,546.519 1037,580.5C 1035.37,599.629 1032.87,618.629 1029.5,637.5 Z"/></g>
<g><path style="opacity:1" fill="#565856" d="M 1029.5,637.5 C 1031.17,637.5 1032.83,637.5 1034.5,637.5C 1028.09,638.686 1021.76,640.352 1015.5,642.5C 1029.65,594.446 1033.98,545.446 1028.5,495.5C 1028.34,492.813 1028.5,490.146 1029,487.5C 1035.75,526.665 1037.09,565.999 1033,605.5C 1030.3,616.003 1028.14,626.67 1026.5,637.5C 1027.5,637.5 1028.5,637.5 1029.5,637.5 Z"/></g>
<g><path style="opacity:1" fill="#000201" d="M 599.5,609.5 C 669.179,605.705 735.846,617.871 799.5,646C 813.204,652.601 826.371,660.101 839,668.5C 847.102,680.313 845.935,691.147 835.5,701C 829.21,704.281 822.543,705.281 815.5,704C 763.999,672.493 707.999,655.826 647.5,654C 598.857,652.058 550.857,656.725 503.5,668C 485.469,668.48 476.969,659.647 478,641.5C 480.194,635.926 483.694,631.426 488.5,628C 504.887,623.189 521.554,619.522 538.5,617C 558.913,613.906 579.246,611.406 599.5,609.5 Z"/></g>
<g><path style="opacity:1" fill="#bbbbbb" d="M 1015.5,418.5 C 1018.36,423.563 1021.36,428.563 1024.5,433.5C 1024.5,433.833 1024.5,434.167 1024.5,434.5C 1028.52,448.418 1032.69,462.418 1037,476.5C 1040.71,493.307 1043.37,510.307 1045,527.5C 1047.66,562.915 1045.16,597.915 1037.5,632.5C 1037.75,633.713 1038.41,634.38 1039.5,634.5C 1041.5,634.5 1043.5,634.5 1045.5,634.5C 1042.37,635.581 1039.04,636.247 1035.5,636.5C 1034.83,636.5 1034.17,636.5 1033.5,636.5C 1033.42,632.103 1033.92,627.77 1035,623.5C 1039.39,610.603 1041.39,597.27 1041,583.5C 1041.67,562.833 1041.67,542.167 1041,521.5C 1039.53,512.667 1038.03,504.001 1036.5,495.5C 1036.08,487.409 1034.92,479.409 1033,471.5C 1027.31,453.725 1021.48,436.058 1015.5,418.5 Z"/></g>
<g><path style="opacity:1" fill="#727272" d="M 1347.5,624.5 C 1347.25,626.967 1346.25,628.967 1344.5,630.5C 1344.75,628.033 1345.75,626.033 1347.5,624.5 Z"/></g>
<g><path style="opacity:1" fill="#959595" d="M 1036.5,495.5 C 1038.03,504.001 1039.53,512.667 1041,521.5C 1041.67,542.167 1041.67,562.833 1041,583.5C 1041.39,597.27 1039.39,610.603 1035,623.5C 1033.92,627.77 1033.42,632.103 1033.5,636.5C 1032.41,636.38 1031.75,635.713 1031.5,634.5C 1040.21,588.436 1041.88,542.103 1036.5,495.5 Z"/></g>
<g><path style="opacity:1" fill="#434343" d="M 1049.5,634.5 C 1059.32,633.506 1069.32,633.173 1079.5,633.5C 1084.05,633.624 1088.38,634.291 1092.5,635.5C 1078.18,634.653 1063.85,634.32 1049.5,634.5 Z"/></g>
<g><path style="opacity:1" fill="#676767" d="M 1092.5,635.5 C 1094.9,635.259 1096.9,635.926 1098.5,637.5C 1096.1,637.741 1094.1,637.074 1092.5,635.5 Z"/></g>
<g><path style="opacity:1" fill="#828282" d="M 1113.5,641.5 C 1115.97,641.755 1117.97,642.755 1119.5,644.5C 1117.03,644.245 1115.03,643.245 1113.5,641.5 Z"/></g>
<g><path style="opacity:1" fill="#4c4c4c" d="M 1340.5,644.5 C 1337.29,660.32 1335.96,676.32 1336.5,692.5C 1335.3,681.328 1335.3,669.995 1336.5,658.5C 1337.17,653.527 1338.5,648.86 1340.5,644.5 Z"/></g>
<g><path style="opacity:1" fill="#868686" d="M 1336.5,692.5 C 1337.97,696.919 1338.64,701.586 1338.5,706.5C 1336.9,702.1 1336.23,697.434 1336.5,692.5 Z"/></g>
<g><path style="opacity:1" fill="#efefef" d="M 369.5,707.5 C 372.329,709.838 374.662,712.671 376.5,716C 381.94,727.047 387.774,737.881 394,748.5C 398.648,751.981 402.815,755.981 406.5,760.5C 409.986,766.802 413.486,773.135 417,779.5C 423.217,785.616 428.717,792.282 433.5,799.5C 435.516,803.022 437.849,806.356 440.5,809.5C 445.666,813.827 450.999,817.993 456.5,822C 460.942,828.088 465.942,833.588 471.5,838.5C 470.078,838.291 468.745,837.791 467.5,837C 427.259,803.751 395.092,763.918 371,717.5C 369.957,714.243 369.457,710.91 369.5,707.5 Z"/></g>
<g><path style="opacity:1" fill="#505050" d="M 1194.5,769.5 C 1195.17,769.5 1195.83,769.5 1196.5,769.5C 1196.84,770.338 1197.51,770.672 1198.5,770.5C 1198.7,772.39 1198.04,773.89 1196.5,775C 1195.5,829.874 1170.17,867.874 1120.5,889C 1096.57,897.893 1072.41,898.726 1048,891.5C 1042.35,891.038 1037.02,889.038 1032,885.5C 1030.54,886.883 1029.71,886.549 1029.5,884.5C 1069.23,894.595 1106.23,888.428 1140.5,866C 1173.35,842.018 1191.35,809.851 1194.5,769.5 Z"/></g>
<g><path style="opacity:1" fill="#c6c7c6" d="M 364.5,689.5 C 377.816,716.804 394.149,742.137 413.5,765.5C 413.709,766.922 414.209,768.255 415,769.5C 417.977,772.131 420.477,775.131 422.5,778.5C 423.325,779.386 424.325,779.719 425.5,779.5C 425.351,780.552 425.517,781.552 426,782.5C 429.35,787.864 433.183,792.864 437.5,797.5C 438.429,798.689 438.762,800.022 438.5,801.5C 436.678,801.169 435.011,800.502 433.5,799.5C 428.717,792.282 423.217,785.616 417,779.5C 413.486,773.135 409.986,766.802 406.5,760.5C 402.815,755.981 398.648,751.981 394,748.5C 387.774,737.881 381.94,727.047 376.5,716C 374.662,712.671 372.329,709.838 369.5,707.5C 369.539,706.417 369.873,705.417 370.5,704.5C 366.565,700.293 364.565,695.293 364.5,689.5 Z"/></g>
<g><path style="opacity:1" fill="#535453" d="M 939.5,775.5 C 941.163,782.813 942.83,790.146 944.5,797.5C 943.599,796.71 942.932,795.71 942.5,794.5C 941.998,792.915 940.998,792.415 939.5,793C 934.527,799.306 928.86,804.973 922.5,810C 921.167,810.333 919.833,810.667 918.5,811C 857.166,863.853 785.833,893.02 704.5,898.5C 682.873,898.248 661.206,897.082 639.5,895C 627.035,891.697 614.369,889.031 601.5,887C 590.451,884.15 579.784,880.65 569.5,876.5C 558.879,873.225 548.879,868.558 539.5,862.5C 534.408,862.03 530.074,860.03 526.5,856.5C 524.5,855.833 522.5,855.167 520.5,854.5C 519.571,853.311 519.238,851.978 519.5,850.5C 569.615,876.195 622.949,889.195 679.5,889.5C 782.528,887.969 869.194,849.969 939.5,775.5 Z"/></g>
<g><path style="opacity:1" fill="#626262" d="M 942.5,794.5 C 936.753,801.415 930.42,807.915 923.5,814C 920.225,816.698 916.558,818.531 912.5,819.5C 912.67,820.822 912.337,821.989 911.5,823C 905.721,826.876 900.388,831.209 895.5,836C 890.597,839.581 885.263,842.247 879.5,844C 876.833,845.333 874.833,847.333 873.5,850C 864.862,854.319 856.529,859.152 848.5,864.5C 844.478,865.848 840.478,867.181 836.5,868.5C 836.67,869.822 836.337,870.989 835.5,872C 832.198,872.661 829.198,873.828 826.5,875.5C 815.401,877.7 804.734,881.2 794.5,886C 784.343,888.788 774.009,890.788 763.5,892C 757.433,894.001 751.433,896.001 745.5,898C 712.175,901.292 678.842,901.292 645.5,898C 620.79,893.238 596.456,887.405 572.5,880.5C 572.167,880.5 571.833,880.5 571.5,880.5C 570.4,879.442 569.066,878.608 567.5,878C 568.416,877.722 569.082,877.222 569.5,876.5C 579.784,880.65 590.451,884.15 601.5,887C 614.369,889.031 627.035,891.697 639.5,895C 661.206,897.082 682.873,898.248 704.5,898.5C 785.833,893.02 857.166,863.853 918.5,811C 919.833,810.667 921.167,810.333 922.5,810C 928.86,804.973 934.527,799.306 939.5,793C 940.998,792.415 941.998,792.915 942.5,794.5 Z"/></g>
<g><path style="opacity:1" fill="#9c9e9d" d="M 413.5,765.5 C 427.894,782.229 443.561,797.562 460.5,811.5C 458.354,811.696 458.188,812.696 460,814.5C 468.672,821.012 476.838,828.012 484.5,835.5C 481.482,835.494 478.816,834.494 476.5,832.5C 472.773,828.767 468.773,825.434 464.5,822.5C 456.118,816.627 448.452,809.794 441.5,802C 440.552,801.517 439.552,801.351 438.5,801.5C 438.762,800.022 438.429,798.689 437.5,797.5C 433.183,792.864 429.35,787.864 426,782.5C 425.517,781.552 425.351,780.552 425.5,779.5C 424.325,779.719 423.325,779.386 422.5,778.5C 420.477,775.131 417.977,772.131 415,769.5C 414.209,768.255 413.709,766.922 413.5,765.5 Z"/></g>
<g><path style="opacity:1" fill="#a5a5a5" d="M 1350.5,738.5 C 1355.77,747.102 1361.43,755.435 1367.5,763.5C 1367.95,767.027 1369.45,770.027 1372,772.5C 1378.92,779.032 1386.42,784.698 1394.5,789.5C 1395.43,790.689 1395.76,792.022 1395.5,793.5C 1396.55,793.351 1397.55,793.517 1398.5,794C 1404.6,800.545 1411.6,805.879 1419.5,810C 1429.53,812.788 1439.53,815.788 1449.5,819C 1462.72,821.342 1476.06,822.009 1489.5,821C 1494.32,819.929 1498.98,818.763 1503.5,817.5C 1509.65,817.027 1515.65,815.86 1521.5,814C 1529.05,810.789 1536.38,807.122 1543.5,803C 1550.67,797.167 1557.83,791.333 1565,785.5C 1568.29,780.546 1571.95,775.88 1576,771.5C 1577.45,768.929 1578.62,766.262 1579.5,763.5C 1581.66,761.199 1583.83,758.866 1586,756.5C 1586.74,752.326 1588.9,749.326 1592.5,747.5C 1591.9,750.127 1591.4,752.793 1591,755.5C 1586.61,761.563 1582.61,767.896 1579,774.5C 1571.17,783.667 1562.67,792.167 1553.5,800C 1543.49,804.305 1533.66,809.139 1524,814.5C 1502.92,822.601 1481.08,825.434 1458.5,823C 1446.12,819.792 1433.79,816.459 1421.5,813C 1411.09,807.473 1401.09,801.473 1391.5,795C 1387.93,789.593 1383.26,785.426 1377.5,782.5C 1372.71,777.394 1368.38,772.06 1364.5,766.5C 1363.21,765.71 1362.04,764.71 1361,763.5C 1358.03,757.853 1355.03,752.186 1352,746.5C 1351.18,743.883 1350.68,741.216 1350.5,738.5 Z"/></g>
<g><path style="opacity:1" fill="#888888" d="M 1367.5,763.5 C 1372.63,768.13 1377.63,772.963 1382.5,778C 1387.72,781.769 1393.05,785.269 1398.5,788.5C 1399.83,790.5 1401.5,792.167 1403.5,793.5C 1403.28,794.675 1403.61,795.675 1404.5,796.5C 1407.93,799.188 1411.27,802.021 1414.5,805C 1422.3,807.6 1429.96,810.6 1437.5,814C 1443.05,814.721 1448.38,816.054 1453.5,818C 1470.19,820.058 1486.86,819.891 1503.5,817.5C 1498.98,818.763 1494.32,819.929 1489.5,821C 1476.06,822.009 1462.72,821.342 1449.5,819C 1439.53,815.788 1429.53,812.788 1419.5,810C 1411.6,805.879 1404.6,800.545 1398.5,794C 1397.55,793.517 1396.55,793.351 1395.5,793.5C 1395.76,792.022 1395.43,790.689 1394.5,789.5C 1386.42,784.698 1378.92,779.032 1372,772.5C 1369.45,770.027 1367.95,767.027 1367.5,763.5 Z"/></g>
<g><path style="opacity:1" fill="#717171" d="M 1583.5,754.5 C 1581.91,757.352 1580.58,760.352 1579.5,763.5C 1575.51,766.333 1572.34,769.999 1570,774.5C 1565.19,777.305 1561.86,781.305 1560,786.5C 1550.96,793.277 1541.79,799.944 1532.5,806.5C 1523.09,811.046 1513.42,814.712 1503.5,817.5C 1486.86,819.891 1470.19,820.058 1453.5,818C 1448.38,816.054 1443.05,814.721 1437.5,814C 1429.96,810.6 1422.3,807.6 1414.5,805C 1411.27,802.021 1407.93,799.188 1404.5,796.5C 1403.61,795.675 1403.28,794.675 1403.5,793.5C 1405.91,794.201 1408.24,795.201 1410.5,796.5C 1413.71,798.938 1416.71,801.604 1419.5,804.5C 1436.81,813.452 1455.31,817.785 1475,817.5C 1485.56,816.842 1496.06,815.675 1506.5,814C 1516.01,808.245 1526.01,803.579 1536.5,800C 1539.04,797.295 1541.7,794.795 1544.5,792.5C 1545.87,792.657 1547.21,792.49 1548.5,792C 1560.79,782.374 1570.96,770.874 1579,757.5C 1580.4,756.252 1581.9,755.252 1583.5,754.5 Z"/></g>
<g><path style="opacity:1" fill="#8a8a8a" d="M 1579.5,763.5 C 1578.62,766.262 1577.45,768.929 1576,771.5C 1571.95,775.88 1568.29,780.546 1565,785.5C 1557.83,791.333 1550.67,797.167 1543.5,803C 1536.38,807.122 1529.05,810.789 1521.5,814C 1515.65,815.86 1509.65,817.027 1503.5,817.5C 1513.42,814.712 1523.09,811.046 1532.5,806.5C 1541.79,799.944 1550.96,793.277 1560,786.5C 1561.86,781.305 1565.19,777.305 1570,774.5C 1572.34,769.999 1575.51,766.333 1579.5,763.5 Z"/></g>
<g><path style="opacity:1" fill="#5e5e5e" d="M 1398.5,788.5 C 1404.73,791.781 1411.06,794.781 1417.5,797.5C 1417.36,799.124 1418.03,800.29 1419.5,801C 1421.5,801.333 1423.5,801.667 1425.5,802C 1428.17,803.333 1430.83,804.667 1433.5,806C 1456.89,814.208 1480.89,815.541 1505.5,810C 1519.23,805.598 1532.23,799.764 1544.5,792.5C 1541.7,794.795 1539.04,797.295 1536.5,800C 1526.01,803.579 1516.01,808.245 1506.5,814C 1496.06,815.675 1485.56,816.842 1475,817.5C 1455.31,817.785 1436.81,813.452 1419.5,804.5C 1416.71,801.604 1413.71,798.938 1410.5,796.5C 1408.24,795.201 1405.91,794.201 1403.5,793.5C 1401.5,792.167 1399.83,790.5 1398.5,788.5 Z"/></g>
<g><path style="opacity:1" fill="#b0b0b0" d="M 946.5,804.5 C 947.72,806.282 948.386,808.282 948.5,810.5C 945.586,807.028 942.253,806.861 938.5,810C 929.411,818.425 919.745,826.092 909.5,833C 901.344,843.077 891.344,850.744 879.5,856C 873.838,856.917 869.171,859.583 865.5,864C 860.391,866.889 855.057,869.222 849.5,871C 848.382,872.074 847.382,873.24 846.5,874.5C 840.277,876.278 834.61,879.112 829.5,883C 824.5,884 819.5,885 814.5,886C 800.288,891.4 785.955,896.234 771.5,900.5C 756.272,902.877 740.938,904.544 725.5,905.5C 726.694,904.223 728.36,903.556 730.5,903.5C 736.493,902.924 742.493,902.424 748.5,902C 767.893,897.588 787.226,892.921 806.5,888C 812.081,885.876 817.414,883.21 822.5,880C 825.101,879.08 827.768,878.413 830.5,878C 840.271,872.567 850.271,867.567 860.5,863C 865.256,860.573 869.423,857.406 873,853.5C 877.608,852.236 881.774,850.069 885.5,847C 895.167,840 904.833,833 914.5,826C 923.55,817.948 932.216,809.615 940.5,801C 941.793,800.51 943.127,800.343 944.5,800.5C 944.229,802.38 944.896,803.713 946.5,804.5 Z"/></g>
<g><path style="opacity:1" fill="#f3f3f3" d="M 1550.5,294.5 C 1550.5,295.167 1550.5,295.833 1550.5,296.5C 1545.9,295.811 1541.07,296.478 1536,298.5C 1434.24,316.772 1332.07,335.272 1229.5,354C 1225.52,354.785 1221.69,355.951 1218,357.5C 1217.67,498.167 1217.33,638.833 1217,779.5C 1213.85,834.705 1188.35,875.539 1140.5,902C 1090.44,924.092 1042.78,920.092 997.5,890C 973.976,871.661 957.309,848.495 947.5,820.5C 947.709,819.914 948.043,819.414 948.5,819C 946.667,818.5 945.5,817.333 945,815.5C 943.992,815.982 942.825,816.148 941.5,816C 885.068,869.885 818.402,902.218 741.5,913C 650.606,923.951 567.273,904.451 491.5,854.5C 491.137,853.817 490.804,853.15 490.5,852.5C 493.668,853.864 497.001,854.697 500.5,855C 502.728,860.294 506.728,863.461 512.5,864.5C 514.959,867.76 518.292,869.26 522.5,869C 554.019,886.711 587.686,898.544 623.5,904.5C 624.833,904.5 626.167,904.5 627.5,904.5C 627.918,905.222 628.584,905.722 629.5,906C 652.457,911.142 675.791,913.309 699.5,912.5C 710.347,912.446 721.18,912.113 732,911.5C 769.124,906.261 804.957,896.428 839.5,882C 863.322,869.594 886.322,855.927 908.5,841C 916.824,830.17 926.824,821.337 938.5,814.5C 939.838,812.663 941.338,810.997 943,809.5C 944.987,810.154 946.32,811.487 947,813.5C 947.333,813.167 947.667,812.833 948,812.5C 949.47,814.631 950.97,816.631 952.5,818.5C 952.5,818.833 952.5,819.167 952.5,819.5C 953.787,829.289 957.621,837.956 964,845.5C 965,848.167 966,850.833 967,853.5C 976.016,863.001 985.183,872.501 994.5,882C 1003.06,888.104 1011.73,893.938 1020.5,899.5C 1020.37,900.376 1020.7,901.043 1021.5,901.5C 1075.51,923.847 1124.84,916.681 1169.5,880C 1196.86,854.678 1212.03,823.178 1215,785.5C 1215.33,642.167 1215.67,498.833 1216,355.5C 1292.73,341.293 1369.56,327.127 1446.5,313C 1481.36,306.471 1516.02,300.305 1550.5,294.5 Z"/></g>
<g><path style="opacity:1" fill="#767676" d="M 942.5,794.5 C 942.932,795.71 943.599,796.71 944.5,797.5C 944.5,798.167 944.5,798.833 944.5,799.5C 943.262,798.588 941.928,798.421 940.5,799C 931.883,807.948 922.883,816.615 913.5,825C 907.64,828.288 902.307,832.288 897.5,837C 890.722,839.914 884.722,843.914 879.5,849C 871.265,852.454 863.598,856.954 856.5,862.5C 849.396,865.218 842.73,868.718 836.5,873C 833.382,874.727 830.049,875.561 826.5,875.5C 829.198,873.828 832.198,872.661 835.5,872C 836.337,870.989 836.67,869.822 836.5,868.5C 840.478,867.181 844.478,865.848 848.5,864.5C 856.529,859.152 864.862,854.319 873.5,850C 874.833,847.333 876.833,845.333 879.5,844C 885.263,842.247 890.597,839.581 895.5,836C 900.388,831.209 905.721,826.876 911.5,823C 912.337,821.989 912.67,820.822 912.5,819.5C 916.558,818.531 920.225,816.698 923.5,814C 930.42,807.915 936.753,801.415 942.5,794.5 Z"/></g>
<g><path style="opacity:1" fill="#dfdfdf" d="M 433.5,799.5 C 435.011,800.502 436.678,801.169 438.5,801.5C 439.552,801.351 440.552,801.517 441.5,802C 448.452,809.794 456.118,816.627 464.5,822.5C 465.779,826.302 468.112,829.469 471.5,832C 475.356,834.951 479.356,837.618 483.5,840C 484.833,840.333 486.167,840.667 487.5,841C 489.957,844.058 492.957,846.392 496.5,848C 499.11,850.99 501.777,853.99 504.5,857C 507.915,857.406 510.582,859.072 512.5,862C 515.56,862.848 518.56,863.848 521.5,865C 525.5,867.667 529.5,870.333 533.5,873C 537.234,874.825 541.234,875.825 545.5,876C 554.539,882.271 564.539,886.438 575.5,888.5C 578.533,891.311 582.2,893.144 586.5,894C 598.911,897.682 611.244,901.182 623.5,904.5C 587.686,898.544 554.019,886.711 522.5,869C 518.292,869.26 514.959,867.76 512.5,864.5C 506.728,863.461 502.728,860.294 500.5,855C 497.001,854.697 493.668,853.864 490.5,852.5C 489.496,849.007 487.163,847.173 483.5,847C 479.88,843.533 475.88,840.7 471.5,838.5C 465.942,833.588 460.942,828.088 456.5,822C 450.999,817.993 445.666,813.827 440.5,809.5C 437.849,806.356 435.516,803.022 433.5,799.5 Z"/></g>
<g><path style="opacity:1" fill="#717271" d="M 460.5,811.5 C 479.003,826.252 498.669,839.252 519.5,850.5C 519.238,851.978 519.571,853.311 520.5,854.5C 522.5,855.167 524.5,855.833 526.5,856.5C 530.074,860.03 534.408,862.03 539.5,862.5C 548.879,868.558 558.879,873.225 569.5,876.5C 569.082,877.222 568.416,877.722 567.5,878C 569.066,878.608 570.4,879.442 571.5,880.5C 565.001,879.251 558.668,877.418 552.5,875C 549.777,873.258 547.443,871.091 545.5,868.5C 540.878,866.57 536.212,864.737 531.5,863C 525.699,858.766 519.366,855.6 512.5,853.5C 511.618,852.24 510.618,851.074 509.5,850C 502.142,846.631 495.308,842.464 489,837.5C 487.56,836.852 486.06,836.519 484.5,836.5C 484.5,836.167 484.5,835.833 484.5,835.5C 476.838,828.012 468.672,821.012 460,814.5C 458.188,812.696 458.354,811.696 460.5,811.5 Z"/></g>
<g><path style="opacity:1" fill="#bcbcbc" d="M 464.5,822.5 C 468.773,825.434 472.773,828.767 476.5,832.5C 478.816,834.494 481.482,835.494 484.5,835.5C 484.5,835.833 484.5,836.167 484.5,836.5C 494.734,844.304 505.068,852.137 515.5,860C 522.219,862.597 528.552,865.93 534.5,870C 541.381,871.727 547.714,874.393 553.5,878C 559.009,880.606 564.675,882.606 570.5,884C 572.497,885.193 574.164,886.693 575.5,888.5C 564.539,886.438 554.539,882.271 545.5,876C 541.234,875.825 537.234,874.825 533.5,873C 529.5,870.333 525.5,867.667 521.5,865C 518.56,863.848 515.56,862.848 512.5,862C 510.582,859.072 507.915,857.406 504.5,857C 501.777,853.99 499.11,850.99 496.5,848C 492.957,846.392 489.957,844.058 487.5,841C 486.167,840.667 484.833,840.333 483.5,840C 479.356,837.618 475.356,834.951 471.5,832C 468.112,829.469 465.779,826.302 464.5,822.5 Z"/></g>
<g><path style="opacity:1" fill="#969696" d="M 972.5,847.5 C 977.167,852.833 982.167,857.833 987.5,862.5C 988.382,864.084 989.215,865.751 990,867.5C 1001.54,876.692 1013.71,885.025 1026.5,892.5C 1020.66,890.088 1014.66,887.921 1008.5,886C 1006.07,881.619 1002.4,878.952 997.5,878C 993.465,873.574 988.965,869.74 984,866.5C 983.446,862.717 981.446,860.05 978,858.5C 975.66,855.083 973.827,851.416 972.5,847.5 Z"/></g>
<g><path style="opacity:1" fill="#adadad" d="M 1201.5,816.5 C 1201.3,820.622 1200.47,824.622 1199,828.5C 1194.43,837.405 1189.43,846.072 1184,854.5C 1177.13,861.031 1170.63,867.864 1164.5,875C 1158.98,879.03 1153.65,883.197 1148.5,887.5C 1142.66,891.254 1136.66,894.754 1130.5,898C 1121.16,900.277 1111.82,902.444 1102.5,904.5C 1102.79,903.351 1103.62,902.684 1105,902.5C 1108.82,901.588 1112.65,900.754 1116.5,900C 1121.35,896.826 1126.69,894.826 1132.5,894C 1135.98,892.009 1139.32,889.842 1142.5,887.5C 1144.18,887.108 1145.85,886.608 1147.5,886C 1152.83,882 1158.17,878 1163.5,874C 1167.63,868.866 1172.13,864.032 1177,859.5C 1180.24,854.698 1183.24,849.698 1186,844.5C 1187.35,842.981 1188.85,841.648 1190.5,840.5C 1194.59,832.504 1198.26,824.504 1201.5,816.5 Z"/></g>
<g><path style="opacity:1" fill="#929292" d="M 944.5,799.5 C 945.537,800.93 946.204,802.597 946.5,804.5C 944.896,803.713 944.229,802.38 944.5,800.5C 943.127,800.343 941.793,800.51 940.5,801C 932.216,809.615 923.55,817.948 914.5,826C 904.833,833 895.167,840 885.5,847C 881.774,850.069 877.608,852.236 873,853.5C 869.423,857.406 865.256,860.573 860.5,863C 850.271,867.567 840.271,872.567 830.5,878C 827.768,878.413 825.101,879.08 822.5,880C 817.414,883.21 812.081,885.876 806.5,888C 787.226,892.921 767.893,897.588 748.5,902C 742.493,902.424 736.493,902.924 730.5,903.5C 728.36,903.556 726.694,904.223 725.5,905.5C 690.492,907.533 655.659,905.866 621,900.5C 606.153,895.297 590.986,891.297 575.5,888.5C 574.164,886.693 572.497,885.193 570.5,884C 564.675,882.606 559.009,880.606 553.5,878C 547.714,874.393 541.381,871.727 534.5,870C 528.552,865.93 522.219,862.597 515.5,860C 505.068,852.137 494.734,844.304 484.5,836.5C 486.06,836.519 487.56,836.852 489,837.5C 495.308,842.464 502.142,846.631 509.5,850C 510.618,851.074 511.618,852.24 512.5,853.5C 519.366,855.6 525.699,858.766 531.5,863C 536.212,864.737 540.878,866.57 545.5,868.5C 547.443,871.091 549.777,873.258 552.5,875C 558.668,877.418 565.001,879.251 571.5,880.5C 571.833,880.5 572.167,880.5 572.5,880.5C 574.099,882.309 576.099,883.642 578.5,884.5C 582.833,886 587.166,887.5 591.5,889C 603.824,892.235 616.157,895.568 628.5,899C 691.298,909.098 752.632,903.765 812.5,883C 817.321,880.684 821.988,878.184 826.5,875.5C 830.049,875.561 833.382,874.727 836.5,873C 842.73,868.718 849.396,865.218 856.5,862.5C 863.598,856.954 871.265,852.454 879.5,849C 884.722,843.914 890.722,839.914 897.5,837C 902.307,832.288 907.64,828.288 913.5,825C 922.883,816.615 931.883,807.948 940.5,799C 941.928,798.421 943.262,798.588 944.5,799.5 Z"/></g>
<g><path style="opacity:1" fill="#7b7b7b" d="M 826.5,875.5 C 821.988,878.184 817.321,880.684 812.5,883C 752.632,903.765 691.298,909.098 628.5,899C 616.157,895.568 603.824,892.235 591.5,889C 587.166,887.5 582.833,886 578.5,884.5C 576.099,883.642 574.099,882.309 572.5,880.5C 596.456,887.405 620.79,893.238 645.5,898C 678.842,901.292 712.175,901.292 745.5,898C 751.433,896.001 757.433,894.001 763.5,892C 774.009,890.788 784.343,888.788 794.5,886C 804.734,881.2 815.401,877.7 826.5,875.5 Z"/></g>
<g><path style="opacity:1" fill="#d0d0d0" d="M 952.5,819.5 C 954.387,822.577 956.554,825.577 959,828.5C 960.009,830.025 960.509,831.692 960.5,833.5C 961.755,839.063 964.588,843.73 969,847.5C 970.475,850.921 972.141,854.254 974,857.5C 983.5,867.667 993.333,877.5 1003.5,887C 1012.08,888.076 1019.75,891.076 1026.5,896C 1033.32,898.695 1039.98,901.529 1046.5,904.5C 1050.13,905.491 1053.8,906.324 1057.5,907C 1069.5,907.667 1081.5,907.667 1093.5,907C 1096.8,906.796 1099.8,905.963 1102.5,904.5C 1111.82,902.444 1121.16,900.277 1130.5,898C 1136.66,894.754 1142.66,891.254 1148.5,887.5C 1149.92,887.291 1151.26,886.791 1152.5,886C 1157.93,880.569 1163.93,875.902 1170.5,872C 1174.93,865.954 1179.93,860.454 1185.5,855.5C 1182.15,859.528 1179.15,863.861 1176.5,868.5C 1173.36,870.63 1171.02,873.297 1169.5,876.5C 1164.83,878.649 1160.83,881.815 1157.5,886C 1149.77,890.704 1141.77,895.038 1133.5,899C 1125.93,901.856 1118.27,904.522 1110.5,907C 1081.39,914.714 1053.06,912.38 1025.5,900C 1023.87,899.506 1022.2,899.34 1020.5,899.5C 1011.73,893.938 1003.06,888.104 994.5,882C 985.183,872.501 976.016,863.001 967,853.5C 966,850.833 965,848.167 964,845.5C 957.621,837.956 953.787,829.289 952.5,819.5 Z"/></g>
<g><path style="opacity:1" fill="#757575" d="M 1190.5,831.5 C 1189.06,834.716 1187.9,838.049 1187,841.5C 1176.91,855.134 1165.74,867.968 1153.5,880C 1149.11,881.523 1145.44,884.023 1142.5,887.5C 1132.8,890.645 1123.13,894.145 1113.5,898C 1107.57,899.65 1101.57,900.983 1095.5,902C 1080.81,902.749 1066.14,902.416 1051.5,901C 1043.16,898.165 1034.83,895.332 1026.5,892.5C 1013.71,885.025 1001.54,876.692 990,867.5C 989.215,865.751 988.382,864.084 987.5,862.5C 993.104,866.311 998.771,870.145 1004.5,874C 1005.45,874.483 1006.45,874.649 1007.5,874.5C 1007.28,875.675 1007.61,876.675 1008.5,877.5C 1036.48,896.953 1067.48,903.786 1101.5,898C 1111.69,895.436 1121.69,892.436 1131.5,889C 1141.01,884.083 1150.01,878.417 1158.5,872C 1167.01,862.975 1175.18,853.809 1183,844.5C 1183.33,843.167 1183.67,841.833 1184,840.5C 1186.21,837.356 1188.38,834.356 1190.5,831.5 Z"/></g>
<g><path style="opacity:1" fill="#969696" d="M 1142.5,887.5 C 1139.32,889.842 1135.98,892.009 1132.5,894C 1126.69,894.826 1121.35,896.826 1116.5,900C 1112.65,900.754 1108.82,901.588 1105,902.5C 1103.62,902.684 1102.79,903.351 1102.5,904.5C 1087.85,905.561 1073.18,905.727 1058.5,905C 1050.64,903.544 1043.31,900.877 1036.5,897C 1032.39,896.92 1029.06,895.42 1026.5,892.5C 1034.83,895.332 1043.16,898.165 1051.5,901C 1066.14,902.416 1080.81,902.749 1095.5,902C 1101.57,900.983 1107.57,899.65 1113.5,898C 1123.13,894.145 1132.8,890.645 1142.5,887.5 Z"/></g>
<g><path style="opacity:1" fill="#b5b5b5" d="M 960.5,833.5 C 964.49,838.126 968.49,842.793 972.5,847.5C 973.827,851.416 975.66,855.083 978,858.5C 981.446,860.05 983.446,862.717 984,866.5C 988.965,869.74 993.465,873.574 997.5,878C 1002.4,878.952 1006.07,881.619 1008.5,886C 1014.66,887.921 1020.66,890.088 1026.5,892.5C 1029.06,895.42 1032.39,896.92 1036.5,897C 1043.31,900.877 1050.64,903.544 1058.5,905C 1073.18,905.727 1087.85,905.561 1102.5,904.5C 1099.8,905.963 1096.8,906.796 1093.5,907C 1081.5,907.667 1069.5,907.667 1057.5,907C 1053.8,906.324 1050.13,905.491 1046.5,904.5C 1039.98,901.529 1033.32,898.695 1026.5,896C 1019.75,891.076 1012.08,888.076 1003.5,887C 993.333,877.5 983.5,867.667 974,857.5C 972.141,854.254 970.475,850.921 969,847.5C 964.588,843.73 961.755,839.063 960.5,833.5 Z"/></g>
<g><path style="opacity:1" fill="#c3c3c3" d="M 575.5,888.5 C 590.986,891.297 606.153,895.297 621,900.5C 655.659,905.866 690.492,907.533 725.5,905.5C 740.938,904.544 756.272,902.877 771.5,900.5C 723.944,910.974 675.944,912.307 627.5,904.5C 626.167,904.5 624.833,904.5 623.5,904.5C 611.244,901.182 598.911,897.682 586.5,894C 582.2,893.144 578.533,891.311 575.5,888.5 Z"/></g>
<g><path style="opacity:1" fill="#dadada" d="M 948.5,810.5 C 950.771,812.612 952.104,815.279 952.5,818.5C 950.97,816.631 949.47,814.631 948,812.5C 947.667,812.833 947.333,813.167 947,813.5C 946.32,811.487 944.987,810.154 943,809.5C 941.338,810.997 939.838,812.663 938.5,814.5C 926.824,821.337 916.824,830.17 908.5,841C 886.322,855.927 863.322,869.594 839.5,882C 804.957,896.428 769.124,906.261 732,911.5C 721.18,912.113 710.347,912.446 699.5,912.5C 675.791,913.309 652.457,911.142 629.5,906C 628.584,905.722 627.918,905.222 627.5,904.5C 675.944,912.307 723.944,910.974 771.5,900.5C 785.955,896.234 800.288,891.4 814.5,886C 819.5,885 824.5,884 829.5,883C 834.61,879.112 840.277,876.278 846.5,874.5C 847.382,873.24 848.382,872.074 849.5,871C 855.057,869.222 860.391,866.889 865.5,864C 869.171,859.583 873.838,856.917 879.5,856C 891.344,850.744 901.344,843.077 909.5,833C 919.745,826.092 929.411,818.425 938.5,810C 942.253,806.861 945.586,807.028 948.5,810.5 Z"/></g>
<g><path style="opacity:1" fill="#ebebeb" d="M 1550.5,290.5 C 1550.5,291.833 1550.5,293.167 1550.5,294.5C 1516.02,300.305 1481.36,306.471 1446.5,313C 1369.56,327.127 1292.73,341.293 1216,355.5C 1215.67,498.833 1215.33,642.167 1215,785.5C 1212.03,823.178 1196.86,854.678 1169.5,880C 1124.84,916.681 1075.51,923.847 1021.5,901.5C 1020.7,901.043 1020.37,900.376 1020.5,899.5C 1022.2,899.34 1023.87,899.506 1025.5,900C 1053.06,912.38 1081.39,914.714 1110.5,907C 1118.27,904.522 1125.93,901.856 1133.5,899C 1141.77,895.038 1149.77,890.704 1157.5,886C 1160.83,881.815 1164.83,878.649 1169.5,876.5C 1171.02,873.297 1173.36,870.63 1176.5,868.5C 1179.15,863.861 1182.15,859.528 1185.5,855.5C 1186.35,851.98 1188.35,849.313 1191.5,847.5C 1197.08,839.339 1201.92,830.672 1206,821.5C 1209.07,811.72 1211.07,801.72 1212,791.5C 1212,646.086 1212.67,500.753 1214,355.5C 1215.21,353.951 1216.71,352.785 1218.5,352C 1272.9,342.656 1327.23,332.989 1381.5,323C 1391.13,321.544 1400.47,319.21 1409.5,316C 1452.44,310.677 1494.78,302.677 1536.5,292C 1541.12,291.006 1545.78,290.506 1550.5,290.5 Z"/></g>
</svg>
